#N canvas 310 27 1130 837 12;
#X text 122 4 Source: https://www.youtube.com/watch?v=7sTrn39TT7k;
#X obj 215 86 tgl 19 0 empty empty empty 0 -10 0 12 #fcfcfc #000000 #000000 0 1;
#X obj 215 110 metro 10000;
#X obj 215 134 bng 19 250 50 0 empty empty empty 0 -10 0 12 #fcfcfc #000000 #000000;
#X obj 106 194 phasor~;
#X obj 106 218 lop~ 6000;
#X obj 106 299 *~;
#X obj 106 134 mtof;
#X floatatom 106 158 5 0 0 0 - - - 0;
#X obj 215 244 line 0 3;
#X floatatom 215 268 5 0 0 0 - - - 0;
#X msg 302 205 0 700;
#X obj 302 178 delay 2000;
#X obj 106 334 throw~ out;
#X obj 1682 75 dac~;
#X obj 1681 21 catch~ out;
#X floatatom 289 76 5 0 0 0 - - - 0;
#X text 301 107 bang every 10 seconds to turn on osc, f 37;
#X floatatom 369 143 5 0 0 0 - - - 0;
#X text 327 74 loop length;
#X text 411 143 note length;
#X text 149 109 note;
#X obj 742 86 tgl 19 0 empty empty empty 0 -10 0 12 #fcfcfc #000000 #000000 0 1;
#X obj 742 110 metro 10000;
#X obj 742 134 bng 19 250 50 0 empty empty empty 0 -10 0 12 #fcfcfc #000000 #000000;
#X obj 633 194 phasor~;
#X obj 633 218 lop~ 6000;
#X obj 633 299 *~;
#X obj 633 134 mtof;
#X floatatom 633 158 5 0 0 0 - - - 0;
#X obj 742 244 line 0 3;
#X floatatom 742 268 5 0 0 0 - - - 0;
#X msg 742 206 0.1 300;
#X msg 829 205 0 700;
#X obj 829 178 delay 2000;
#X obj 633 334 throw~ out;
#X text 856 75 loop length;
#X text 938 143 note length;
#X text 676 109 note;
#X floatatom 633 111 5 0 0 0 - - - 0;
#X floatatom 816 76 5 0 0 0 - - - 0;
#X floatatom 896 143 5 0 0 0 - - - 0;
#X obj 212 436 tgl 19 0 empty empty empty 0 -10 0 12 #fcfcfc #000000 #000000 0 1;
#X obj 212 460 metro 10000;
#X obj 212 484 bng 19 250 50 0 empty empty empty 0 -10 0 12 #fcfcfc #000000 #000000;
#X obj 103 544 phasor~;
#X obj 103 568 lop~ 6000;
#X obj 103 649 *~;
#X obj 103 484 mtof;
#X floatatom 103 508 5 0 0 0 - - - 0;
#X obj 212 594 line 0 3;
#X floatatom 212 618 5 0 0 0 - - - 0;
#X msg 212 556 0.1 300;
#X msg 299 555 0 700;
#X obj 299 528 delay 2000;
#X obj 103 684 throw~ out;
#X text 326 425 loop length;
#X text 408 493 note length;
#X text 146 459 note;
#X floatatom 366 493 5 0 0 0 - - - 0;
#X floatatom 103 461 5 0 0 0 - - - 0;
#X floatatom 286 426 5 0 0 0 - - - 0;
#X obj 1233 86 tgl 19 0 empty empty empty 0 -10 0 12 #fcfcfc #000000 #000000 0 1;
#X obj 1233 110 metro 10000;
#X obj 1233 134 bng 19 250 50 0 empty empty empty 0 -10 0 12 #fcfcfc #000000 #000000;
#X obj 1124 194 phasor~;
#X obj 1124 218 lop~ 6000;
#X obj 1124 299 *~;
#X obj 1124 134 mtof;
#X floatatom 1124 158 5 0 0 0 - - - 0;
#X obj 1233 244 line 0 3;
#X floatatom 1233 268 5 0 0 0 - - - 0;
#X msg 1233 206 0.1 300;
#X msg 1320 205 0 700;
#X obj 1320 178 delay 2000;
#X obj 1124 334 throw~ out;
#X text 1347 75 loop length;
#X text 1429 143 note length;
#X text 1167 109 note;
#X floatatom 1387 143 5 0 0 0 - - - 0;
#X floatatom 1124 111 5 0 0 0 - - - 0;
#X floatatom 1307 76 5 0 0 0 - - - 0;
#X text 245 44 Loop 1:;
#X text 755 44 Loop 2:;
#X text 230 402 Loop 4:;
#X text 1236 54 Loop 3:;
#X obj 702 436 tgl 19 0 empty empty empty 0 -10 0 12 #fcfcfc #000000 #000000 0 1;
#X obj 702 460 metro 10000;
#X obj 702 484 bng 19 250 50 0 empty empty empty 0 -10 0 12 #fcfcfc #000000 #000000;
#X obj 593 544 phasor~;
#X obj 593 568 lop~ 6000;
#X obj 593 649 *~;
#X obj 593 484 mtof;
#X floatatom 593 508 5 0 0 0 - - - 0;
#X obj 702 594 line 0 3;
#X floatatom 702 618 5 0 0 0 - - - 0;
#X msg 702 556 0.1 300;
#X msg 789 555 0 700;
#X obj 789 528 delay 2000;
#X obj 593 684 throw~ out;
#X text 816 425 loop length;
#X text 898 493 note length;
#X text 636 459 note;
#X floatatom 856 493 5 0 0 0 - - - 0;
#X floatatom 593 461 5 0 0 0 - - - 0;
#X floatatom 776 426 5 0 0 0 - - - 0;
#X text 720 402 Loop 5:;
#X obj 1234 426 tgl 19 0 empty empty empty 0 -10 0 12 #fcfcfc #000000 #000000 0 1;
#X obj 1234 450 metro 10000;
#X obj 1234 474 bng 19 250 50 0 empty empty empty 0 -10 0 12 #fcfcfc #000000 #000000;
#X obj 1125 534 phasor~;
#X obj 1125 558 lop~ 6000;
#X obj 1125 639 *~;
#X obj 1125 474 mtof;
#X floatatom 1125 498 5 0 0 0 - - - 0;
#X obj 1234 584 line 0 3;
#X floatatom 1234 608 5 0 0 0 - - - 0;
#X msg 1234 546 0.1 300;
#X msg 1321 545 0 700;
#X obj 1321 518 delay 2000;
#X obj 1125 674 throw~ out;
#X text 1348 415 loop length;
#X text 1430 483 note length;
#X text 1168 449 note;
#X floatatom 1388 483 5 0 0 0 - - - 0;
#X floatatom 1125 451 5 0 0 0 - - - 0;
#X floatatom 1308 416 5 0 0 0 - - - 0;
#X text 1237 394 Loop 6:;
#X floatatom 106 111 5 0 0 0 - - - 0;
#X msg 215 206 0.1 300;
#X connect 1 0 2 0;
#X connect 2 0 3 0;
#X connect 3 0 129 0;
#X connect 3 0 12 0;
#X connect 4 0 5 0;
#X connect 5 0 6 0;
#X connect 6 0 13 0;
#X connect 7 0 8 0;
#X connect 8 0 4 0;
#X connect 9 0 10 0;
#X connect 10 0 6 1;
#X connect 11 0 9 0;
#X connect 12 0 11 0;
#X connect 15 0 14 0;
#X connect 15 0 14 1;
#X connect 16 0 2 1;
#X connect 18 0 12 1;
#X connect 22 0 23 0;
#X connect 23 0 24 0;
#X connect 24 0 32 0;
#X connect 24 0 34 0;
#X connect 25 0 26 0;
#X connect 26 0 27 0;
#X connect 27 0 35 0;
#X connect 28 0 29 0;
#X connect 29 0 25 0;
#X connect 30 0 31 0;
#X connect 31 0 27 1;
#X connect 32 0 30 0;
#X connect 33 0 30 0;
#X connect 34 0 33 0;
#X connect 39 0 28 0;
#X connect 40 0 23 1;
#X connect 41 0 34 1;
#X connect 42 0 43 0;
#X connect 43 0 44 0;
#X connect 44 0 52 0;
#X connect 44 0 54 0;
#X connect 45 0 46 0;
#X connect 46 0 47 0;
#X connect 47 0 55 0;
#X connect 48 0 49 0;
#X connect 49 0 45 0;
#X connect 50 0 51 0;
#X connect 51 0 47 1;
#X connect 52 0 50 0;
#X connect 53 0 50 0;
#X connect 54 0 53 0;
#X connect 59 0 54 1;
#X connect 60 0 48 0;
#X connect 61 0 43 1;
#X connect 62 0 63 0;
#X connect 63 0 64 0;
#X connect 64 0 72 0;
#X connect 64 0 74 0;
#X connect 65 0 66 0;
#X connect 66 0 67 0;
#X connect 67 0 75 0;
#X connect 68 0 69 0;
#X connect 69 0 65 0;
#X connect 70 0 71 0;
#X connect 71 0 67 1;
#X connect 72 0 70 0;
#X connect 73 0 70 0;
#X connect 74 0 73 0;
#X connect 79 0 74 1;
#X connect 80 0 68 0;
#X connect 81 0 63 1;
#X connect 86 0 87 0;
#X connect 87 0 88 0;
#X connect 88 0 96 0;
#X connect 88 0 98 0;
#X connect 89 0 90 0;
#X connect 90 0 91 0;
#X connect 91 0 99 0;
#X connect 92 0 93 0;
#X connect 93 0 89 0;
#X connect 94 0 95 0;
#X connect 95 0 91 1;
#X connect 96 0 94 0;
#X connect 97 0 94 0;
#X connect 98 0 97 0;
#X connect 103 0 98 1;
#X connect 104 0 92 0;
#X connect 105 0 87 1;
#X connect 107 0 108 0;
#X connect 108 0 109 0;
#X connect 109 0 117 0;
#X connect 109 0 119 0;
#X connect 110 0 111 0;
#X connect 111 0 112 0;
#X connect 112 0 120 0;
#X connect 113 0 114 0;
#X connect 114 0 110 0;
#X connect 115 0 116 0;
#X connect 116 0 112 1;
#X connect 117 0 115 0;
#X connect 118 0 115 0;
#X connect 119 0 118 0;
#X connect 124 0 119 1;
#X connect 125 0 113 0;
#X connect 126 0 108 1;
#X connect 128 0 7 0;
#X connect 129 0 9 0;
