#N canvas 491 34 949 838 12;
#X declare -path Abstractions;
#X text 46 790 Bass;
#X obj -36 832 r Chord;
#X obj -37 863 tgl 19 0 empty empty empty 0 -10 0 12 #fcfcfc #000000 #000000 0 1;
#X obj -37 887 sel 0;
#X obj -37 911 bng 19 250 50 0 empty empty empty 0 -10 0 12 #fcfcfc #000000 #000000;
#X msg -37 955 130.81;
#X text -16 933 C;
#X obj 5 912 bng 19 250 50 0 empty empty empty 0 -10 0 12 #fcfcfc #000000 #000000;
#X msg 25 955 87.31;
#X text 40 935 F;
#X floatatom -36 992 5 0 0 0 - - - 0;
#X obj -35 1027 phasor~;
#X obj -36 1066 lop~ 100;
#X obj -35 1102 *~;
#X obj -35 1144 send~ Bass;
#X text 128 804 Envelope;
#X obj 123 899 sel 1;
#X obj 123 923 bng 19 250 50 0 empty empty empty 0 -10 0 12 #fcfcfc #000000 #000000;
#X msg 123 957 1 500;
#X obj 123 1056 line;
#X obj 246 899 * 2;
#X floatatom 246 923 5 0 0 0 - - - 0;
#X obj 246 946 - 100;
#X obj 319 968 sel 0;
#X obj 319 992 delay 5;
#X obj 202 983 delay;
#X msg 203 1022 0 100;
#X text 869 828 Envelope;
#X text 728 785 Ambient Pad Melody;
#X obj 781 858 r whole_note;
#X floatatom 607 924 5 0 0 0 - - - 0;
#X obj 607 1004 phasor~;
#X obj 684 960 * 1.001;
#X floatatom 684 984 5 0 0 0 - - - 0;
#X obj 684 1007 phasor~;
#X obj 608 1050 lop~ 100;
#X obj 608 1118 *~ 0.5;
#X obj 608 1091 *~;
#X obj 608 1142 send~ Ambient_Pad;
#X obj 792 1066 line;
#X obj 781 888 bng 19 250 50 0 empty empty empty 0 -10 0 12 #fcfcfc #000000 #000000;
#X msg 784 1005 1 500;
#X msg 854 1004 0 500;
#X obj 852 971 delay;
#X obj 883 936 -500;
#X floatatom 882 902 5 0 0 0 - - - 0;
#X obj 954 939 sel 0;
#X obj 954 963 delay 5;
#X text 297 439 Reverb;
#X obj 287 539 receive~ Bass;
#X obj 402 519 receive~ Ambient_Pad;
#X obj 441 680 dac~;
#X obj 693 31 declare -path Abstractions;
#X obj 466 587 rev2~ 100 90 3000 20;
#X obj 245 867 receive whole_time;
#X obj 876 857 receive whole_time;
#X obj 124 830 loadbang;
#X obj 124 854 tgl 19 0 empty empty empty 0 -10 0 12 #fcfcfc #000000 #000000 0 1;
#X obj 320 913 loadbang;
#X obj 320 937 tgl 19 0 empty empty empty 0 -10 0 12 #fcfcfc #000000 #000000 0 1;
#X obj 954 885 loadbang;
#X obj 954 909 tgl 19 0 empty empty empty 0 -10 0 12 #fcfcfc #000000 #000000 0 1;
#X obj 607 896 r chord_scale;
#X obj 505 635 *~ 0.25;
#X obj 437 634 *~ 0.35;
#X connect 1 0 2 0;
#X connect 2 0 3 0;
#X connect 3 0 4 0;
#X connect 3 1 7 0;
#X connect 4 0 5 0;
#X connect 5 0 10 0;
#X connect 7 0 8 0;
#X connect 8 0 10 0;
#X connect 10 0 11 0;
#X connect 11 0 12 0;
#X connect 12 0 13 0;
#X connect 13 0 14 0;
#X connect 16 0 17 0;
#X connect 17 0 18 0;
#X connect 18 0 19 0;
#X connect 19 0 13 1;
#X connect 20 0 21 0;
#X connect 21 0 22 0;
#X connect 22 0 25 1;
#X connect 23 0 24 0;
#X connect 24 0 26 0;
#X connect 25 0 26 0;
#X connect 26 0 19 0;
#X connect 29 0 40 0;
#X connect 30 0 31 0;
#X connect 30 0 32 0;
#X connect 31 0 35 0;
#X connect 32 0 33 0;
#X connect 33 0 34 0;
#X connect 34 0 35 0;
#X connect 35 0 37 0;
#X connect 36 0 38 0;
#X connect 37 0 36 0;
#X connect 39 0 37 1;
#X connect 40 0 41 0;
#X connect 41 0 39 0;
#X connect 42 0 39 0;
#X connect 43 0 42 0;
#X connect 44 0 43 1;
#X connect 45 0 44 0;
#X connect 46 0 47 0;
#X connect 47 0 42 0;
#X connect 49 0 63 0;
#X connect 49 0 64 0;
#X connect 50 0 53 0;
#X connect 53 0 64 0;
#X connect 53 1 63 0;
#X connect 54 0 20 0;
#X connect 55 0 45 0;
#X connect 56 0 57 0;
#X connect 57 0 16 0;
#X connect 58 0 59 0;
#X connect 59 0 23 0;
#X connect 60 0 61 0;
#X connect 61 0 46 0;
#X connect 62 0 30 0;
#X connect 63 0 51 1;
#X connect 64 0 51 0;
