#N canvas 472 37 976 599 12;
#X declare -path Abstractions;
#X text 471 109 Envelope;
#X obj 383 139 r whole_note;
#X floatatom 209 205 5 0 0 0 - - - 0;
#X obj 209 285 phasor~;
#X obj 286 241 * 1.001;
#X floatatom 286 265 5 0 0 0 - - - 0;
#X obj 286 288 phasor~;
#X obj 210 331 lop~ 100;
#X obj 210 399 *~ 0.5;
#X obj 210 372 *~;
#X obj 394 347 line;
#X obj 383 169 bng 19 250 50 0 empty empty empty 0 -10 0 12 #fcfcfc #000000 #000000;
#X msg 386 286 1 500;
#X msg 456 285 0 500;
#X obj 454 252 delay;
#X obj 485 217 -500;
#X floatatom 484 183 5 0 0 0 - - - 0;
#X obj 556 220 sel 0;
#X obj 556 244 delay 5;
#X obj 556 166 loadbang;
#X obj 556 190 tgl 19 0 empty empty empty 0 -10 0 12 #fcfcfc #000000 #000000 0 1;
#X obj 209 177 r chord_scale;
#X text 330 66 Ambient Melody;
#X obj 221 560 dac~;
#X obj 210 442 rev2~ 100 90 3000 20;
#X obj 478 138 receive whole_note;
#X obj 693 31 declare -path Abstractions;
#X obj 208 487 *~ 0.25;
#X obj 272 488 *~ 0.25;
#X connect 1 0 11 0;
#X connect 2 0 3 0;
#X connect 2 0 4 0;
#X connect 3 0 7 0;
#X connect 4 0 5 0;
#X connect 5 0 6 0;
#X connect 6 0 7 0;
#X connect 7 0 9 0;
#X connect 8 0 24 0;
#X connect 9 0 8 0;
#X connect 10 0 9 1;
#X connect 11 0 12 0;
#X connect 12 0 10 0;
#X connect 13 0 10 0;
#X connect 14 0 13 0;
#X connect 15 0 14 1;
#X connect 16 0 15 0;
#X connect 17 0 18 0;
#X connect 18 0 13 0;
#X connect 19 0 20 0;
#X connect 20 0 17 0;
#X connect 21 0 2 0;
#X connect 24 0 27 0;
#X connect 24 1 28 0;
#X connect 25 0 16 0;
#X connect 27 0 23 0;
#X connect 28 0 23 1;
