#N canvas 0 25 1440 847 24;
#X obj 79 71 loadbang;
#X obj 577 36 loadbang;
#X msg 297 148 60;
#X floatatom 294 208 5 0 0 0 - - - 0;
#X obj 133 276 /;
#X obj 133 397 send 4th_time;
#X obj 576 112 send ON;
#X obj 577 80 tgl 15 0 empty empty empty 17 7 0 10 #fcfcfc #000000 #000000 0 1;
#X obj 1028 148 receive whole_note;
#X obj 906 57 receive ON;
#X obj 906 118 sel 0;
#X obj 1025 219 int 1;
#X obj 1175 258 + 1;
#X floatatom 1026 300 5 0 0 0 - - - 0;
#X obj 1028 394 % 2;
#X obj 1026 468 + 1;
#X obj 1026 540 sel 1;
#X obj 1011 609 bng 15 250 50 0 empty empty empty 17 7 0 10 #fcfcfc #000000 #000000;
#X obj 1010 638 tgl 15 0 empty empty empty 17 7 0 10 #fcfcfc #000000 #000000 0 1;
#X obj 59 588 receive ON;
#X obj 200 483 receive 4th_time;
#X obj 202 547 * 4;
#X floatatom 217 619 5 0 0 0 - - - 0;
#X obj 201 657 send whole_time;
#X obj 61 664 metro;
#X obj 145 688 bng 15 250 50 0 empty empty empty 17 7 0 10 #fcfcfc #000000 #000000;
#X obj 62 737 send whole_note;
#X obj 474 595 receive ON;
#X obj 615 490 receive 4th_time;
#X floatatom 614 618 5 0 0 0 - - - 0;
#X obj 476 671 metro;
#X obj 477 718 bng 15 250 50 0 empty empty empty 17 7 0 10 #fcfcfc #000000 #000000;
#X obj 617 554 * 1;
#X obj 477 744 send 4th_note;
#X obj 124 873 r Chord;
#X obj 116 917 tgl 15 0 empty empty empty 17 7 0 10 #fcfcfc #000000 #000000 0 1;
#X obj 114 947 sel 0;
#X obj 120 974 bng 15 250 50 0 empty empty empty 17 7 0 10 #fcfcfc #000000 #000000;
#X obj 157 978 bng 15 250 50 0 empty empty empty 17 7 0 10 #fcfcfc #000000 #000000;
#X msg 119 999 130.81;
#X msg 222 998 87.31;
#X floatatom 118 1035 5 0 0 0 - - - 0;
#X obj 117 1076 phasor~;
#X obj 120 1120 lop~ 100;
#X obj 344 876 receive ON;
#X obj 522 874 receive whole_time;
#X obj 526 931 * 2;
#X floatatom 521 979 5 0 0 0 - - - 0;
#X obj 528 1019 - 100;
#X obj 445 1067 delay;
#X msg 447 1121 0 100;
#X msg 343 921 1 500;
#X obj 447 1171 line;
#X obj 803 880 receive ON;
#X obj 805 921 sel 0;
#X obj 805 963 delay 5;
#X obj 119 1174 *~;
#X obj 122 1221 send~ Bass;
#X obj 1028 879 receive~ Bass;
#X obj 978 1076 dac~;
#X obj 1197 841 osc~ 200;
#X msg 914 183 -1;
#X floatatom 156 332 5 0 0 0 - - - 0;
#X obj 193 108 bng 15 250 50 0 empty empty empty 17 7 0 10 #fcfcfc #000000 #000000;
#X obj 193 136 t b b;
#X msg 108 203 60000;
#X obj 1024 669 send Chord;
#X obj 443 1262 send envFollow;
#X obj 458 1218 print;
#X connect 0 0 64 0;
#X connect 1 0 7 0;
#X connect 2 0 3 0;
#X connect 3 0 4 1;
#X connect 4 0 62 0;
#X connect 7 0 6 0;
#X connect 8 0 11 0;
#X connect 9 0 10 0;
#X connect 10 0 61 0;
#X connect 11 0 12 0;
#X connect 11 0 13 0;
#X connect 12 0 11 1;
#X connect 13 0 14 0;
#X connect 14 0 15 0;
#X connect 15 0 16 0;
#X connect 16 0 17 0;
#X connect 17 0 18 0;
#X connect 18 0 66 0;
#X connect 19 0 24 0;
#X connect 20 0 21 0;
#X connect 21 0 22 0;
#X connect 22 0 23 0;
#X connect 22 0 24 1;
#X connect 24 0 25 0;
#X connect 25 0 26 0;
#X connect 27 0 30 0;
#X connect 28 0 32 0;
#X connect 29 0 30 1;
#X connect 30 0 31 0;
#X connect 31 0 33 0;
#X connect 32 0 29 0;
#X connect 34 0 35 0;
#X connect 35 0 36 0;
#X connect 36 0 37 0;
#X connect 36 1 38 0;
#X connect 37 0 39 0;
#X connect 38 0 40 0;
#X connect 39 0 41 0;
#X connect 40 0 41 0;
#X connect 41 0 42 0;
#X connect 42 0 43 0;
#X connect 43 0 56 0;
#X connect 44 0 51 0;
#X connect 45 0 46 0;
#X connect 46 0 47 0;
#X connect 47 0 48 0;
#X connect 48 0 49 1;
#X connect 49 0 50 0;
#X connect 50 0 52 0;
#X connect 51 0 52 0;
#X connect 52 0 56 1;
#X connect 52 0 67 0;
#X connect 52 0 68 0;
#X connect 53 0 54 0;
#X connect 54 0 55 0;
#X connect 55 0 50 0;
#X connect 56 0 57 0;
#X connect 58 0 59 0;
#X connect 58 0 59 1;
#X connect 61 0 11 0;
#X connect 62 0 5 0;
#X connect 63 0 64 0;
#X connect 64 0 65 0;
#X connect 64 1 2 0;
#X connect 65 0 4 0;
