#N canvas 282 25 1159 847 12;
#X text 122 4 Source: https://www.youtube.com/watch?v=7sTrn39TT7k;
#X obj 140 447 dac~;
#X obj 145 288 catch~ out;
#X obj 212 870 metro 10000;
#X obj 212 894 bng 19 250 50 0 empty empty empty 0 -10 0 12 #fcfcfc #000000 #000000;
#X obj 103 947 phasor~;
#X obj 103 971 lop~ 6000;
#X obj 103 1036 *~;
#X obj 103 894 mtof;
#X floatatom 103 918 5 0 0 0 - - - 0;
#X obj 212 994 line 0 3;
#X floatatom 212 1018 5 0 0 0 - - - 0;
#X msg 350 965 0 700;
#X obj 350 938 delay 2000;
#X obj 103 1089 throw~ out;
#X text 324 837 loop length;
#X text 461 904 note length;
#X text 146 869 note;
#X floatatom 417 903 5 0 0 0 - - - 0;
#X floatatom 103 871 5 0 0 0 - - - 0;
#X floatatom 286 836 5 0 0 0 - - - 0;
#X obj 103 770 r LFO;
#X obj 103 843 +;
#X obj 103 1060 *~ 0.1;
#X obj 121 795 r note1;
#X floatatom 121 819 5 0 0 0 - - - 0;
#X obj 212 812 r toggle;
#X obj 286 760 r randomize;
#X obj 286 784 random 30000;
#X obj 286 808 + 10000;
#X obj 417 828 r randomize;
#X obj 417 852 random 3000;
#X obj 417 876 + 1000;
#X text 252 726 Loop 1:;
#X obj 712 870 metro 10000;
#X obj 712 894 bng 19 250 50 0 empty empty empty 0 -10 0 12 #fcfcfc #000000 #000000;
#X obj 603 947 phasor~;
#X obj 603 971 lop~ 6000;
#X obj 603 1036 *~;
#X obj 603 894 mtof;
#X floatatom 603 918 5 0 0 0 - - - 0;
#X obj 712 994 line 0 3;
#X floatatom 712 1018 5 0 0 0 - - - 0;
#X msg 850 965 0 700;
#X obj 850 938 delay 2000;
#X obj 603 1089 throw~ out;
#X text 824 837 loop length;
#X text 961 904 note length;
#X text 646 869 note;
#X floatatom 917 903 5 0 0 0 - - - 0;
#X floatatom 603 871 5 0 0 0 - - - 0;
#X floatatom 786 836 5 0 0 0 - - - 0;
#X obj 603 770 r LFO;
#X obj 603 843 +;
#X obj 603 1060 *~ 0.1;
#X floatatom 621 819 5 0 0 0 - - - 0;
#X obj 712 812 r toggle;
#X obj 786 760 r randomize;
#X obj 786 784 random 30000;
#X obj 786 808 + 10000;
#X obj 917 828 r randomize;
#X obj 917 852 random 3000;
#X obj 917 876 + 1000;
#X obj 1222 870 metro 10000;
#X obj 1222 894 bng 19 250 50 0 empty empty empty 0 -10 0 12 #fcfcfc #000000 #000000;
#X obj 1113 947 phasor~;
#X obj 1113 971 lop~ 6000;
#X obj 1113 1036 *~;
#X obj 1113 894 mtof;
#X floatatom 1113 918 5 0 0 0 - - - 0;
#X obj 1222 994 line 0 3;
#X floatatom 1222 1018 5 0 0 0 - - - 0;
#X msg 1360 965 0 700;
#X obj 1360 938 delay 2000;
#X obj 1113 1089 throw~ out;
#X text 1334 837 loop length;
#X text 1471 904 note length;
#X text 1156 869 note;
#X floatatom 1427 903 5 0 0 0 - - - 0;
#X floatatom 1113 871 5 0 0 0 - - - 0;
#X floatatom 1296 836 5 0 0 0 - - - 0;
#X obj 1113 770 r LFO;
#X obj 1113 843 +;
#X obj 1113 1060 *~ 0.1;
#X floatatom 1131 819 5 0 0 0 - - - 0;
#X obj 1222 812 r toggle;
#X obj 1296 760 r randomize;
#X obj 1296 784 random 30000;
#X obj 1296 808 + 10000;
#X obj 1427 828 r randomize;
#X obj 1427 852 random 3000;
#X obj 1427 876 + 1000;
#X obj 213 1320 metro 10000;
#X obj 213 1344 bng 19 250 50 0 empty empty empty 0 -10 0 12 #fcfcfc #000000 #000000;
#X obj 104 1397 phasor~;
#X obj 104 1421 lop~ 6000;
#X obj 104 1486 *~;
#X obj 104 1344 mtof;
#X floatatom 104 1368 5 0 0 0 - - - 0;
#X obj 213 1444 line 0 3;
#X floatatom 213 1468 5 0 0 0 - - - 0;
#X msg 351 1415 0 700;
#X obj 351 1388 delay 2000;
#X obj 104 1539 throw~ out;
#X text 325 1287 loop length;
#X text 462 1354 note length;
#X text 147 1319 note;
#X floatatom 418 1353 5 0 0 0 - - - 0;
#X floatatom 104 1321 5 0 0 0 - - - 0;
#X floatatom 287 1286 5 0 0 0 - - - 0;
#X obj 104 1220 r LFO;
#X obj 104 1293 +;
#X obj 104 1510 *~ 0.1;
#X floatatom 122 1269 5 0 0 0 - - - 0;
#X obj 213 1262 r toggle;
#X obj 287 1210 r randomize;
#X obj 287 1234 random 30000;
#X obj 287 1258 + 10000;
#X obj 418 1278 r randomize;
#X obj 418 1302 random 3000;
#X obj 418 1326 + 1000;
#X obj 713 1320 metro 10000;
#X obj 713 1344 bng 19 250 50 0 empty empty empty 0 -10 0 12 #fcfcfc #000000 #000000;
#X obj 604 1397 phasor~;
#X obj 604 1421 lop~ 6000;
#X obj 604 1486 *~;
#X obj 604 1344 mtof;
#X floatatom 604 1368 5 0 0 0 - - - 0;
#X obj 713 1444 line 0 3;
#X floatatom 713 1468 5 0 0 0 - - - 0;
#X msg 851 1415 0 700;
#X obj 851 1388 delay 2000;
#X obj 604 1539 throw~ out;
#X text 825 1287 loop length;
#X text 962 1354 note length;
#X text 647 1319 note;
#X floatatom 918 1353 5 0 0 0 - - - 0;
#X floatatom 604 1321 5 0 0 0 - - - 0;
#X floatatom 787 1286 5 0 0 0 - - - 0;
#X obj 604 1220 r LFO;
#X obj 604 1293 +;
#X obj 604 1510 *~ 0.1;
#X floatatom 622 1269 5 0 0 0 - - - 0;
#X obj 713 1262 r toggle;
#X obj 787 1210 r randomize;
#X obj 787 1234 random 30000;
#X obj 787 1258 + 10000;
#X obj 918 1278 r randomize;
#X obj 918 1302 random 3000;
#X obj 918 1326 + 1000;
#X obj 1223 1320 metro 10000;
#X obj 1223 1344 bng 19 250 50 0 empty empty empty 0 -10 0 12 #fcfcfc #000000 #000000;
#X obj 1114 1397 phasor~;
#X obj 1114 1421 lop~ 6000;
#X obj 1114 1486 *~;
#X obj 1114 1344 mtof;
#X floatatom 1114 1368 5 0 0 0 - - - 0;
#X obj 1223 1444 line 0 3;
#X floatatom 1223 1468 5 0 0 0 - - - 0;
#X msg 1361 1415 0 700;
#X obj 1361 1388 delay 2000;
#X obj 1114 1539 throw~ out;
#X text 1335 1287 loop length;
#X text 1472 1354 note length;
#X text 1157 1319 note;
#X floatatom 1428 1353 5 0 0 0 - - - 0;
#X floatatom 1114 1321 5 0 0 0 - - - 0;
#X floatatom 1297 1286 5 0 0 0 - - - 0;
#X obj 1114 1220 r LFO;
#X obj 1114 1293 +;
#X obj 1114 1510 *~ 0.1;
#X floatatom 1132 1269 5 0 0 0 - - - 0;
#X obj 1223 1262 r toggle;
#X obj 1297 1210 r randomize;
#X obj 1297 1234 random 30000;
#X obj 1297 1258 + 10000;
#X obj 1428 1278 r randomize;
#X obj 1428 1302 random 3000;
#X obj 1428 1326 + 1000;
#X obj 621 795 r note2;
#X text 752 726 Loop 2:;
#X text 1262 726 Loop 3:;
#X obj 1131 795 r note3;
#X obj 122 1245 r note4;
#X text 253 1176 Loop 4:;
#X obj 622 1245 r note5;
#X text 753 1176 Loop 5:;
#X text 1263 1176 Loop 6:;
#X obj 1132 1245 r note6;
#X text 1429 143 comment;
#X text 148 79 Master Toggle;
#X obj 151 147 tgl 19 0 empty empty empty 0 -10 0 12 #fcfcfc #000000 #000000 0 1;
#X obj 151 171 s toggle;
#X text 317 78 Randomize;
#X obj 320 101 loadbang;
#X obj 320 125 bng 19 250 50 0 empty empty empty 0 -10 0 12 #fcfcfc #000000 #000000;
#X obj 320 149 s randomize;
#X text 523 68 Pitches for 6 Oscilators:;
#X obj 525 95 loadbang;
#X msg 525 119 36;
#X msg 585 119 55;
#X msg 645 119 60;
#X msg 705 119 69;
#X msg 765 119 74;
#X msg 825 119 75;
#X obj 525 143 s note1;
#X obj 585 143 s note2;
#X obj 645 143 s note3;
#X obj 705 143 s note4;
#X obj 765 143 s note5;
#X obj 825 143 s note6;
#X text 1021 59 Lopass Filter for Oscilators:;
#X obj 1027 91 r toggle;
#X obj 1027 115 metro 3;
#X obj 1027 169 snapshot~;
#X floatatom 1027 193 5 0 0 0 - - - 0;
#X obj 1027 216 * 0.075;
#X obj 1027 240 s LFO;
#X obj 1050 141 osc~ 4;
#X text 1079 244 send to oscillators;
#X text 1099 171 convert oscillator to control signal;
#X text 1103 142 4hz LFO;
#X text 1085 114 sampling rate for snapshot;
#X text 1092 93 receive from toggle;
#X text 121 256 Add Feedback w/ highpass filter to output;
#X obj 213 328 hip~ 600;
#X obj 213 352 delwrite~ delBuff 900;
#X obj 213 380 delread~ delBuff 900;
#X obj 213 404 *~ 0.9;
#X obj 213 428 lop~ 4000;
#X obj 213 452 throw~ out;
#X text 276 328 highpass filter;
#X text 378 368 delay buffer in/out;
#X text 287 429 lowpass filter;
#X text 291 453 feedback;
#X msg 212 956 1 300;
#X msg 712 956 1 300;
#X msg 1222 956 1 300;
#X msg 1223 1406 1 300;
#X msg 713 1406 1 300;
#X msg 213 1406 1 300;
#X obj 146 117 loadbang;
#X connect 2 0 1 0;
#X connect 2 0 1 1;
#X connect 2 0 225 0;
#X connect 3 0 4 0;
#X connect 4 0 235 0;
#X connect 4 0 13 0;
#X connect 5 0 6 0;
#X connect 6 0 7 0;
#X connect 7 0 23 0;
#X connect 8 0 9 0;
#X connect 9 0 5 0;
#X connect 10 0 11 0;
#X connect 11 0 7 1;
#X connect 12 0 10 0;
#X connect 13 0 12 0;
#X connect 18 0 13 1;
#X connect 19 0 8 0;
#X connect 20 0 3 1;
#X connect 21 0 22 0;
#X connect 22 0 19 0;
#X connect 23 0 14 0;
#X connect 24 0 25 0;
#X connect 25 0 22 1;
#X connect 26 0 3 0;
#X connect 27 0 28 0;
#X connect 28 0 29 0;
#X connect 29 0 20 0;
#X connect 30 0 31 0;
#X connect 31 0 32 0;
#X connect 32 0 18 0;
#X connect 34 0 35 0;
#X connect 35 0 236 0;
#X connect 35 0 44 0;
#X connect 36 0 37 0;
#X connect 37 0 38 0;
#X connect 38 0 54 0;
#X connect 39 0 40 0;
#X connect 40 0 36 0;
#X connect 41 0 42 0;
#X connect 42 0 38 1;
#X connect 43 0 41 0;
#X connect 44 0 43 0;
#X connect 49 0 44 1;
#X connect 50 0 39 0;
#X connect 51 0 34 1;
#X connect 52 0 53 0;
#X connect 53 0 50 0;
#X connect 54 0 45 0;
#X connect 55 0 53 1;
#X connect 56 0 34 0;
#X connect 57 0 58 0;
#X connect 58 0 59 0;
#X connect 59 0 51 0;
#X connect 60 0 61 0;
#X connect 61 0 62 0;
#X connect 62 0 49 0;
#X connect 63 0 64 0;
#X connect 64 0 237 0;
#X connect 64 0 73 0;
#X connect 65 0 66 0;
#X connect 66 0 67 0;
#X connect 67 0 83 0;
#X connect 68 0 69 0;
#X connect 69 0 65 0;
#X connect 70 0 71 0;
#X connect 71 0 67 1;
#X connect 72 0 70 0;
#X connect 73 0 72 0;
#X connect 78 0 73 1;
#X connect 79 0 68 0;
#X connect 80 0 63 1;
#X connect 81 0 82 0;
#X connect 82 0 79 0;
#X connect 83 0 74 0;
#X connect 84 0 82 1;
#X connect 85 0 63 0;
#X connect 86 0 87 0;
#X connect 87 0 88 0;
#X connect 88 0 80 0;
#X connect 89 0 90 0;
#X connect 90 0 91 0;
#X connect 91 0 78 0;
#X connect 92 0 93 0;
#X connect 93 0 240 0;
#X connect 93 0 102 0;
#X connect 94 0 95 0;
#X connect 95 0 96 0;
#X connect 96 0 112 0;
#X connect 97 0 98 0;
#X connect 98 0 94 0;
#X connect 99 0 100 0;
#X connect 100 0 96 1;
#X connect 101 0 99 0;
#X connect 102 0 101 0;
#X connect 107 0 102 1;
#X connect 108 0 97 0;
#X connect 109 0 92 1;
#X connect 110 0 111 0;
#X connect 111 0 108 0;
#X connect 112 0 103 0;
#X connect 113 0 111 1;
#X connect 114 0 92 0;
#X connect 115 0 116 0;
#X connect 116 0 117 0;
#X connect 117 0 109 0;
#X connect 118 0 119 0;
#X connect 119 0 120 0;
#X connect 120 0 107 0;
#X connect 121 0 122 0;
#X connect 122 0 239 0;
#X connect 122 0 131 0;
#X connect 123 0 124 0;
#X connect 124 0 125 0;
#X connect 125 0 141 0;
#X connect 126 0 127 0;
#X connect 127 0 123 0;
#X connect 128 0 129 0;
#X connect 129 0 125 1;
#X connect 130 0 128 0;
#X connect 131 0 130 0;
#X connect 136 0 131 1;
#X connect 137 0 126 0;
#X connect 138 0 121 1;
#X connect 139 0 140 0;
#X connect 140 0 137 0;
#X connect 141 0 132 0;
#X connect 142 0 140 1;
#X connect 143 0 121 0;
#X connect 144 0 145 0;
#X connect 145 0 146 0;
#X connect 146 0 138 0;
#X connect 147 0 148 0;
#X connect 148 0 149 0;
#X connect 149 0 136 0;
#X connect 150 0 151 0;
#X connect 151 0 238 0;
#X connect 151 0 160 0;
#X connect 152 0 153 0;
#X connect 153 0 154 0;
#X connect 154 0 170 0;
#X connect 155 0 156 0;
#X connect 156 0 152 0;
#X connect 157 0 158 0;
#X connect 158 0 154 1;
#X connect 159 0 157 0;
#X connect 160 0 159 0;
#X connect 165 0 160 1;
#X connect 166 0 155 0;
#X connect 167 0 150 1;
#X connect 168 0 169 0;
#X connect 169 0 166 0;
#X connect 170 0 161 0;
#X connect 171 0 169 1;
#X connect 172 0 150 0;
#X connect 173 0 174 0;
#X connect 174 0 175 0;
#X connect 175 0 167 0;
#X connect 176 0 177 0;
#X connect 177 0 178 0;
#X connect 178 0 165 0;
#X connect 179 0 55 0;
#X connect 182 0 84 0;
#X connect 183 0 113 0;
#X connect 185 0 142 0;
#X connect 188 0 171 0;
#X connect 191 0 192 0;
#X connect 194 0 195 0;
#X connect 195 0 196 0;
#X connect 198 0 199 0;
#X connect 198 0 200 0;
#X connect 198 0 201 0;
#X connect 198 0 202 0;
#X connect 198 0 203 0;
#X connect 198 0 204 0;
#X connect 199 0 205 0;
#X connect 200 0 206 0;
#X connect 201 0 207 0;
#X connect 202 0 208 0;
#X connect 203 0 209 0;
#X connect 204 0 210 0;
#X connect 212 0 213 0;
#X connect 213 0 214 0;
#X connect 214 0 215 0;
#X connect 215 0 216 0;
#X connect 216 0 217 0;
#X connect 218 0 214 0;
#X connect 225 0 226 0;
#X connect 227 0 228 0;
#X connect 228 0 229 0;
#X connect 229 0 230 0;
#X connect 235 0 10 0;
#X connect 236 0 41 0;
#X connect 237 0 70 0;
#X connect 238 0 157 0;
#X connect 239 0 128 0;
#X connect 240 0 99 0;
#X connect 241 0 191 0;
