#N canvas 357 25 1028 847 12;
#X declare -path Abstractions;
#X declare -path freeverb~;
#X obj 380 67 loadbang;
#X obj 504 66 loadbang;
#X floatatom 503 124 5 0 0 0 - - - 0;
#X msg 503 96 60;
#X msg 381 131 60000;
#X obj 486 206 /;
#X floatatom 486 237 5 0 0 0 - - - 0;
#X obj 486 267 send 4th_time;
#X obj 477 157 bng 19 250 50 0 empty empty empty 0 -10 0 12 #fcfcfc #000000 #000000;
#X text 458 27 BPM;
#X text 720 294 Clock Multiplication;
#X obj 565 332 receive ON;
#X obj 666 331 receive 4th_time;
#X obj 816 331 receive ON;
#X obj 917 330 receive 4th_time;
#X obj 666 363 * 4;
#X floatatom 668 396 5 0 0 0 - - - 0;
#X obj 691 427 send whole_time;
#X obj 621 431 metro;
#X obj 622 467 bng 19 250 50 0 empty empty empty 0 -10 0 12 #fcfcfc #000000 #000000;
#X obj 919 367 * 1;
#X floatatom 920 404 5 0 0 0 - - - 0;
#X obj 892 436 metro;
#X obj 894 471 bng 19 250 50 0 empty empty empty 0 -10 0 12 #fcfcfc #000000 #000000;
#X obj 895 502 send 4th_note;
#X obj 622 496 send whole_note;
#X obj 65 66 tgl 19 0 empty empty empty 0 -10 0 12 #fcfcfc #000000 #000000 0 1;
#X obj 65 98 send ON;
#X text 59 39 On/Off;
#X obj 245 333 receive ON;
#X obj 247 400 bng 19 250 50 0 empty empty empty 0 -10 0 12 #fcfcfc #000000 #000000;
#X text 241 298 Clock/Sequencer;
#X obj 246 364 sel 0;
#X obj 163 362 loadbang;
#X text 163 401 Reset;
#X msg 247 433 -1;
#X obj 366 401 receive whole_note;
#X obj 366 431 bng 19 250 50 0 empty empty empty 0 -10 0 12 #fcfcfc #000000 #000000;
#X obj 366 455 int 1;
#X obj 446 496 + 1;
#X floatatom 366 491 5 0 0 0 - - - 0;
#X obj 366 514 % 2;
#X obj 366 538 + 1;
#X obj 366 562 sel 1;
#X obj 366 586 bng 19 250 50 0 empty empty empty 0 -10 0 12 #fcfcfc #000000 #000000;
#X obj 366 610 tgl 19 0 empty empty empty 0 -10 0 12 #fcfcfc #000000 #000000 0 1;
#X obj 366 634 send Chord;
#X obj 212 537 receive ON;
#X obj 212 561 sel 0;
#X msg 279 591 1;
#X obj 278 563 loadbang;
#X text 147 613 every two measures this toggle changes its state (connected to base), f 26;
#X text 46 790 Bass;
#X obj -37 839 r Chord;
#X obj -37 863 tgl 19 0 empty empty empty 0 -10 0 12 #fcfcfc #000000 #000000 0 1;
#X obj -37 887 sel 0;
#X obj -37 911 bng 19 250 50 0 empty empty empty 0 -10 0 12 #fcfcfc #000000 #000000;
#X msg -37 955 130.81;
#X text -16 933 C;
#X obj 5 912 bng 19 250 50 0 empty empty empty 0 -10 0 12 #fcfcfc #000000 #000000;
#X msg 25 955 87.31;
#X text 40 935 F;
#X floatatom -36 992 5 0 0 0 - - - 0;
#X obj -35 1027 phasor~;
#X obj -36 1066 lop~ 100;
#X obj -35 1102 *~;
#X obj -35 1144 send~ Bass;
#X text 126 850 Envelope;
#X obj 123 875 receive ON;
#X obj 123 899 sel 1;
#X obj 123 923 bng 19 250 50 0 empty empty empty 0 -10 0 12 #fcfcfc #000000 #000000;
#X msg 123 957 1 500;
#X obj 123 1056 line;
#X obj 246 875 receive whole_time;
#X obj 246 899 * 2;
#X floatatom 246 923 5 0 0 0 - - - 0;
#X obj 246 946 - 100;
#X obj 319 944 receive ON;
#X obj 319 968 sel 0;
#X obj 319 992 delay 5;
#X obj 202 983 delay;
#X msg 203 1022 0 100;
#X text 869 828 Envelope;
#X text 728 785 Ambient Pad Melody;
#X obj 607 845 r whole_note;
#X obj 607 869 bng 19 250 50 0 empty empty empty 0 -10 0 12 #fcfcfc #000000 #000000;
#X floatatom 607 924 5 0 0 0 - - - 0;
#X obj 607 1004 phasor~;
#X obj 684 960 * 1.001;
#X floatatom 684 984 5 0 0 0 - - - 0;
#X obj 684 1007 phasor~;
#X obj 608 1050 lop~ 100;
#X obj 608 1118 *~ 0.5;
#X obj 608 1091 *~;
#X obj 608 1142 send~ Ambient_Pad;
#X obj 792 1066 line;
#X obj 781 888 bng 19 250 50 0 empty empty empty 0 -10 0 12 #fcfcfc #000000 #000000;
#X msg 784 1005 1 500;
#X msg 854 1004 0 500;
#X obj 852 971 delay;
#X obj 883 936 -500;
#X floatatom 882 902 5 0 0 0 - - - 0;
#X obj 880 867 receive whole_time;
#X obj 954 915 receive ON;
#X obj 954 939 sel 0;
#X obj 954 963 delay 5;
#X text 249 1229 Reverb;
#X obj 92 1269 receive~ Bass;
#X obj 245 1269 receive~ Ambient_Pad;
#X obj 444 1268 loadbang;
#X obj 517 1268 loadbang;
#X obj 590 1269 loadbang;
#X msg 446 1298 1;
#X msg 446 1322 wet \$1;
#X msg 517 1292 0.5;
#X msg 517 1316 dry \$1;
#X msg 590 1293 0.95;
#X msg 590 1317 roomsize \$1;
#X obj 386 1384 freeverb~;
#X obj 389 1424 *~ 0.5;
#X obj 457 1425 *~ 0.5;
#X obj 393 1470 dac~;
#X obj 607 896 Chords_Scales;
#X obj 22 17 loadbang;
#X obj 693 31 declare -path Abstractions;
#X obj 696 65 declare -path freeverb~;
#X connect 0 0 4 0;
#X connect 1 0 3 0;
#X connect 2 0 5 1;
#X connect 2 0 8 0;
#X connect 3 0 2 0;
#X connect 4 0 5 0;
#X connect 5 0 6 0;
#X connect 6 0 7 0;
#X connect 8 0 5 0;
#X connect 11 0 18 0;
#X connect 12 0 15 0;
#X connect 13 0 22 0;
#X connect 14 0 20 0;
#X connect 15 0 16 0;
#X connect 16 0 17 0;
#X connect 16 0 18 1;
#X connect 18 0 19 0;
#X connect 19 0 25 0;
#X connect 20 0 21 0;
#X connect 21 0 22 1;
#X connect 22 0 23 0;
#X connect 23 0 24 0;
#X connect 26 0 27 0;
#X connect 29 0 32 0;
#X connect 30 0 35 0;
#X connect 32 0 30 0;
#X connect 33 0 30 0;
#X connect 35 0 38 0;
#X connect 36 0 37 0;
#X connect 37 0 38 0;
#X connect 38 0 39 0;
#X connect 38 0 40 0;
#X connect 39 0 38 1;
#X connect 40 0 41 0;
#X connect 41 0 42 0;
#X connect 42 0 43 0;
#X connect 43 0 44 0;
#X connect 44 0 45 0;
#X connect 45 0 46 0;
#X connect 47 0 48 0;
#X connect 48 0 49 0;
#X connect 49 0 45 0;
#X connect 50 0 49 0;
#X connect 53 0 54 0;
#X connect 54 0 55 0;
#X connect 55 0 56 0;
#X connect 55 1 59 0;
#X connect 56 0 57 0;
#X connect 57 0 62 0;
#X connect 59 0 60 0;
#X connect 60 0 62 0;
#X connect 62 0 63 0;
#X connect 63 0 64 0;
#X connect 64 0 65 0;
#X connect 65 0 66 0;
#X connect 68 0 69 0;
#X connect 69 0 70 0;
#X connect 70 0 71 0;
#X connect 71 0 72 0;
#X connect 72 0 65 1;
#X connect 73 0 74 0;
#X connect 74 0 75 0;
#X connect 75 0 76 0;
#X connect 76 0 80 1;
#X connect 77 0 78 0;
#X connect 78 0 79 0;
#X connect 79 0 81 0;
#X connect 80 0 81 0;
#X connect 81 0 72 0;
#X connect 84 0 85 0;
#X connect 84 0 96 0;
#X connect 85 0 122 0;
#X connect 86 0 87 0;
#X connect 86 0 88 0;
#X connect 87 0 91 0;
#X connect 88 0 89 0;
#X connect 89 0 90 0;
#X connect 90 0 91 0;
#X connect 91 0 93 0;
#X connect 92 0 94 0;
#X connect 93 0 92 0;
#X connect 95 0 93 1;
#X connect 96 0 97 0;
#X connect 97 0 95 0;
#X connect 98 0 95 0;
#X connect 99 0 98 0;
#X connect 100 0 99 1;
#X connect 101 0 100 0;
#X connect 102 0 101 0;
#X connect 103 0 104 0;
#X connect 104 0 105 0;
#X connect 105 0 98 0;
#X connect 107 0 120 0;
#X connect 107 0 119 0;
#X connect 108 0 118 0;
#X connect 108 0 118 1;
#X connect 109 0 112 0;
#X connect 110 0 114 0;
#X connect 111 0 116 0;
#X connect 112 0 113 0;
#X connect 113 0 118 0;
#X connect 114 0 115 0;
#X connect 115 0 118 0;
#X connect 116 0 117 0;
#X connect 117 0 118 0;
#X connect 118 0 119 0;
#X connect 118 1 120 0;
#X connect 119 0 121 0;
#X connect 120 0 121 1;
#X connect 122 0 86 0;
#X connect 123 0 26 0;
