#N canvas 203 148 866 566 12;
#X declare -path Abstractions;
#X text 315 26 Bass;
#X obj 233 68 r Chord;
#X obj 232 99 tgl 19 0 empty empty empty 0 -10 0 12 #fcfcfc #000000 #000000 0 1;
#X obj 232 123 sel 0;
#X obj 232 147 bng 19 250 50 0 empty empty empty 0 -10 0 12 #fcfcfc #000000 #000000;
#X msg 232 191 130.81;
#X text 253 169 C;
#X obj 274 148 bng 19 250 50 0 empty empty empty 0 -10 0 12 #fcfcfc #000000 #000000;
#X msg 294 191 87.31;
#X text 309 171 F;
#X floatatom 233 228 5 0 0 0 - - - 0;
#X obj 234 263 phasor~;
#X obj 233 302 lop~ 100;
#X obj 234 338 *~;
#X text 397 40 Envelope;
#X obj 392 135 sel 1;
#X obj 392 159 bng 19 250 50 0 empty empty empty 0 -10 0 12 #fcfcfc #000000 #000000;
#X msg 392 193 1 500;
#X obj 392 292 line;
#X obj 515 135 * 2;
#X floatatom 515 159 5 0 0 0 - - - 0;
#X obj 515 182 - 100;
#X obj 588 204 sel 0;
#X obj 588 228 delay 5;
#X obj 471 219 delay;
#X msg 472 258 0 100;
#X obj 514 103 receive whole_time;
#X obj 393 66 loadbang;
#X obj 393 90 tgl 19 0 empty empty empty 0 -10 0 12 #fcfcfc #000000 #000000 0 1;
#X obj 589 149 loadbang;
#X obj 589 173 tgl 19 0 empty empty empty 0 -10 0 12 #fcfcfc #000000 #000000 0 1;
#X obj 231 457 dac~;
#X obj 209 389 *~ 0.35;
#X obj 293 97 print;
#X obj 693 31 declare -path Abstractions;
#X obj 281 391 *~ 0.35;
#X connect 1 0 2 0;
#X connect 1 0 33 0;
#X connect 2 0 3 0;
#X connect 3 0 4 0;
#X connect 3 1 7 0;
#X connect 4 0 5 0;
#X connect 5 0 10 0;
#X connect 7 0 8 0;
#X connect 8 0 10 0;
#X connect 10 0 11 0;
#X connect 11 0 12 0;
#X connect 12 0 13 0;
#X connect 13 0 32 0;
#X connect 13 0 35 0;
#X connect 15 0 16 0;
#X connect 16 0 17 0;
#X connect 17 0 18 0;
#X connect 18 0 13 1;
#X connect 19 0 20 0;
#X connect 20 0 21 0;
#X connect 21 0 24 1;
#X connect 22 0 23 0;
#X connect 23 0 25 0;
#X connect 24 0 25 0;
#X connect 25 0 18 0;
#X connect 26 0 19 0;
#X connect 27 0 28 0;
#X connect 28 0 15 0;
#X connect 29 0 30 0;
#X connect 30 0 22 0;
#X connect 32 0 31 0;
#X connect 35 0 31 1;
