#N canvas 704 28 736 583 12;
#X obj 345 119 inlet;
#X obj 345 143 bng 19 250 50 0 empty empty empty 0 -10 0 12 #fcfcfc #000000 #000000;
#X obj 345 167 random 8;
#X floatatom 343 212 5 0 0 0 - - - 0;
#X text 411 212 C Major Scale (MIDI Note);
#X obj 79 273 sel 0;
#X obj 153 272 sel 1;
#X obj 225 272 sel 2;
#X obj 285 274 sel 3;
#X obj 356 273 sel 4;
#X obj 430 272 sel 5;
#X obj 502 272 sel 6;
#X obj 562 274 sel 7;
#X msg 79 335 60;
#X text 97 315 C;
#X msg 158 336 62;
#X text 176 316 D;
#X text 253 317 E;
#X msg 235 337 64;
#X text 315 315 F;
#X msg 297 335 65;
#X msg 362 334 67;
#X text 380 314 G;
#X text 459 315 A;
#X text 536 316 B;
#X text 598 314 C;
#X msg 441 335 69;
#X msg 518 336 71;
#X msg 580 334 72;
#X floatatom 336 392 5 0 0 0 - - - 0;
#X obj 336 415 mtof;
#X floatatom 336 439 5 0 0 0 - - - 0;
#X obj 336 462 outlet;
#X text 397 435 Converting MIDI Note to Frequency;
#X text 307 68 Chord_Scales;
#X connect 0 0 1 0;
#X connect 1 0 2 0;
#X connect 2 0 3 0;
#X connect 3 0 5 0;
#X connect 3 0 6 0;
#X connect 3 0 7 0;
#X connect 3 0 8 0;
#X connect 3 0 9 0;
#X connect 3 0 10 0;
#X connect 3 0 11 0;
#X connect 3 0 12 0;
#X connect 5 0 13 0;
#X connect 6 0 15 0;
#X connect 7 0 18 0;
#X connect 8 0 20 0;
#X connect 9 0 21 0;
#X connect 10 0 26 0;
#X connect 11 0 27 0;
#X connect 12 0 28 0;
#X connect 13 0 29 0;
#X connect 15 0 29 0;
#X connect 18 0 29 0;
#X connect 20 0 29 0;
#X connect 21 0 29 0;
#X connect 26 0 29 0;
#X connect 27 0 29 0;
#X connect 28 0 29 0;
#X connect 29 0 30 0;
#X connect 30 0 31 0;
#X connect 31 0 32 0;
