#N canvas 63 88 450 300 12;
#X declare -path Abstractions;
#X obj 519 467 dac~;
#X obj 43 129 message2symbol;
#X obj 43 53 declare -path Abstractions;
#X obj 520 335 r kick_bang;
#X obj 519 427 *~ 0.5;
#X obj 40 254 soundfiler;
#N canvas 0 50 450 250 (subpatch) 0;
#X array audioData1 20594 float 2;
#X coords 0 1 20594 -1 200 140 1;
#X restore 41 312 graph;
#X msg 41 156 ../../Drums/Kick/\$1;
#X obj 43 101 r Kick;
#X obj 40 185 message2symbol;
#X obj 518 373 tabplay~ audioData1, f 17;
#X obj 648 373 tabplay~ audioData2, f 17;
#N canvas 0 50 450 250 (subpatch) 0;
#X array audioData2 20594 float 2;
#X coords 0 1 20594 -1 200 140 1 0 0;
#X restore 251 313 graph;
#X msg 42 218 read -resize \$1 audioData1;
#X obj 235 132 message2symbol;
#X obj 236 254 soundfiler;
#X obj 236 187 message2symbol;
#X obj 236 103 r Snare;
#X obj 649 345 r snare_bang;
#X msg 238 161 ../../Drums/Snare/\$1;
#X msg 238 218 read -resize \$1 audioData2;
#X obj 455 121 message2symbol;
#X obj 456 243 soundfiler;
#X obj 456 176 message2symbol;
#X obj 456 92 r Sticks;
#X msg 458 150 ../../Drums/Sticks/\$1;
#X msg 458 207 read -resize \$1 audioData3;
#N canvas 0 50 450 250 (subpatch) 0;
#X array audioData3 20594 float 2;
#X coords 0 1 20594 -1 200 140 1 0 0;
#X restore 41 479 graph;
#X obj 662 431 r sticks_bang;
#X obj 661 459 tabplay~ audioData3, f 17;
#X obj 676 118 message2symbol;
#X obj 677 240 soundfiler;
#X obj 677 173 message2symbol;
#N canvas 0 50 450 250 (subpatch) 0;
#X array audioData4 20594 float 2;
#X coords 0 1 20594 -1 200 140 1 0 0;
#X restore 257 478 graph;
#X msg 679 204 read -resize \$1 audioData4;
#X obj 672 536 tabplay~ audioData3, f 17;
#X obj 677 89 r Toms;
#X msg 679 147 ../../Drums/Toms/\$1;
#X obj 673 508 r toms_bang;
#X connect 1 0 7 0;
#X connect 3 0 10 0;
#X connect 4 0 0 0;
#X connect 4 0 0 1;
#X connect 7 0 9 0;
#X connect 8 0 1 0;
#X connect 9 0 13 0;
#X connect 10 0 4 0;
#X connect 11 0 4 0;
#X connect 13 0 5 0;
#X connect 14 0 19 0;
#X connect 16 0 20 0;
#X connect 17 0 14 0;
#X connect 18 0 11 0;
#X connect 19 0 16 0;
#X connect 20 0 15 0;
#X connect 21 0 25 0;
#X connect 23 0 26 0;
#X connect 24 0 21 0;
#X connect 25 0 23 0;
#X connect 26 0 22 0;
#X connect 28 0 29 0;
#X connect 29 0 4 0;
#X connect 30 0 37 0;
#X connect 32 0 34 0;
#X connect 34 0 31 0;
#X connect 35 0 4 0;
#X connect 36 0 30 0;
#X connect 37 0 32 0;
#X connect 38 0 35 0;
