#N canvas 121 146 450 300 12;
#X obj 38 78 loadbang;
#X obj 162 77 loadbang;
#X floatatom 161 135 5 0 0 0 - - - 0;
#X msg 161 107 60;
#X msg 39 142 60000;
#X obj 144 217 /;
#X floatatom 144 248 5 0 0 0 - - - 0;
#X obj 144 278 send 4th_time;
#X obj 135 168 bng 19 250 50 0 empty empty empty 0 -10 0 12 #fcfcfc #000000 #000000;
#X text 116 38 BPM;
#X text 461 39 Clock Multiplication;
#X obj 306 77 receive ON;
#X obj 407 76 receive 4th_time;
#X obj 557 76 receive ON;
#X obj 658 75 receive 4th_time;
#X obj 407 108 * 4;
#X floatatom 409 141 5 0 0 0 - - - 0;
#X obj 432 172 send whole_time;
#X obj 362 176 metro;
#X obj 363 212 bng 19 250 50 0 empty empty empty 0 -10 0 12 #fcfcfc #000000 #000000;
#X obj 660 112 * 1;
#X floatatom 661 149 5 0 0 0 - - - 0;
#X obj 633 181 metro;
#X obj 635 216 bng 19 250 50 0 empty empty empty 0 -10 0 12 #fcfcfc #000000 #000000;
#X obj 636 247 send 4th_note;
#X obj 15 382 receive ON;
#X obj 116 381 receive 4th_time;
#X obj 266 381 receive ON;
#X obj 367 380 receive 4th_time;
#X floatatom 118 446 5 0 0 0 - - - 0;
#X obj 71 481 metro;
#X obj 72 517 bng 19 250 50 0 empty empty empty 0 -10 0 12 #fcfcfc #000000 #000000;
#X obj 369 417 * 1;
#X floatatom 370 454 5 0 0 0 - - - 0;
#X obj 342 486 metro;
#X obj 344 521 bng 19 250 50 0 empty empty empty 0 -10 0 12 #fcfcfc #000000 #000000;
#X obj 345 552 send 4th_note;
#X text 449 340 Clock Division;
#X obj 518 382 receive ON;
#X obj 619 381 receive 4th_time;
#X obj 769 381 receive ON;
#X obj 870 380 receive 4th_time;
#X obj 574 481 metro;
#X obj 575 517 bng 19 250 50 0 empty empty empty 0 -10 0 12 #fcfcfc #000000 #000000;
#X floatatom 873 454 5 0 0 0 - - - 0;
#X obj 845 486 metro;
#X obj 847 521 bng 19 250 50 0 empty empty empty 0 -10 0 12 #fcfcfc #000000 #000000;
#X obj 116 413 * 2;
#X obj 141 477 send half_time;
#X obj 72 546 send half_note;
#X obj 363 241 send whole_note;
#X obj 619 413 / 2;
#X floatatom 621 446 5 0 0 0 - - - 0;
#X obj 644 477 send 8th_time;
#X obj 575 546 send 8th_note;
#X obj 872 417 / 4;
#X obj 904 486 send 16th_time;
#X obj 848 552 send 16th_note;
#X connect 0 0 4 0;
#X connect 1 0 3 0;
#X connect 2 0 5 1;
#X connect 2 0 8 0;
#X connect 3 0 2 0;
#X connect 4 0 5 0;
#X connect 5 0 6 0;
#X connect 6 0 7 0;
#X connect 8 0 5 0;
#X connect 11 0 18 0;
#X connect 12 0 15 0;
#X connect 13 0 22 0;
#X connect 14 0 20 0;
#X connect 15 0 16 0;
#X connect 16 0 17 0;
#X connect 16 0 18 1;
#X connect 18 0 19 0;
#X connect 19 0 50 0;
#X connect 20 0 21 0;
#X connect 21 0 22 1;
#X connect 22 0 23 0;
#X connect 23 0 24 0;
#X connect 25 0 30 0;
#X connect 26 0 47 0;
#X connect 27 0 34 0;
#X connect 28 0 32 0;
#X connect 29 0 30 1;
#X connect 29 0 48 0;
#X connect 30 0 31 0;
#X connect 31 0 49 0;
#X connect 32 0 33 0;
#X connect 33 0 34 1;
#X connect 34 0 35 0;
#X connect 35 0 36 0;
#X connect 38 0 42 0;
#X connect 39 0 51 0;
#X connect 40 0 45 0;
#X connect 41 0 55 0;
#X connect 42 0 43 0;
#X connect 43 0 54 0;
#X connect 44 0 45 1;
#X connect 44 0 56 0;
#X connect 45 0 46 0;
#X connect 46 0 57 0;
#X connect 47 0 29 0;
#X connect 51 0 52 0;
#X connect 52 0 42 1;
#X connect 52 0 53 0;
#X connect 55 0 44 0;
