#N canvas 316 25 1099 847 12;
#X declare -path Abstractions;
#X obj 78 83 loadbang;
#X obj 261 39 loadbang;
#X msg 260 77 375;
#X obj 139 148 sel 0;
#X obj 141 189 bng 19 250 50 0 empty empty empty 0 -10 0 12 #fcfcfc #000000 #000000;
#X msg 142 224 -1;
#X floatatom 260 111 5 0 0 0 - - - 0;
#X obj 228 148 metro;
#X obj 228 105 tgl 19 0 empty empty empty 0 -10 0 12 #fcfcfc #000000 #000000 0 1;
#X obj 233 261 int 1, f 6;
#X obj 229 188 bng 19 250 50 0 empty empty empty 0 -10 0 12 #fcfcfc #000000 #000000;
#X obj 315 295 + 1;
#X floatatom 236 318 5 0 0 0 - - - 0;
#X obj 237 360 % 8;
#X obj 238 398 + 1;
#X floatatom 238 429 5 0 0 0 - - - 0;
#X obj 94 364 % 16;
#X obj 95 397 + 1;
#X floatatom 96 435 5 0 0 0 - - - 0;
#X obj 97 474 sel 1;
#X obj 99 511 bng 19 250 50 0 empty empty empty 0 -10 0 12 #fcfcfc #000000 #000000;
#X obj 98 547 s New_Pattern;
#X text 17 330 output bang every 2 measures;
#X text 2 541 send object to send bang;
#X obj 240 497 sel 1;
#X obj 241 525 bng 19 250 50 0 empty empty empty 0 -10 0 12 #fcfcfc #000000 #000000;
#X obj 242 555 s One;
#X obj 333 524 bng 19 250 50 0 empty empty empty 0 -10 0 12 #fcfcfc #000000 #000000;
#X obj 332 496 sel 2;
#X obj 334 554 s Two;
#X obj 429 524 bng 19 250 50 0 empty empty empty 0 -10 0 12 #fcfcfc #000000 #000000;
#X obj 428 496 sel 3;
#X obj 430 554 s Three;
#X obj 542 523 bng 19 250 50 0 empty empty empty 0 -10 0 12 #fcfcfc #000000 #000000;
#X obj 541 495 sel 4;
#X obj 543 553 s Four;
#X obj 647 523 bng 19 250 50 0 empty empty empty 0 -10 0 12 #fcfcfc #000000 #000000;
#X obj 646 495 sel 5;
#X obj 648 553 s Five;
#X obj 759 524 bng 19 250 50 0 empty empty empty 0 -10 0 12 #fcfcfc #000000 #000000;
#X obj 758 496 sel 6;
#X obj 760 554 s Six;
#X obj 856 522 bng 19 250 50 0 empty empty empty 0 -10 0 12 #fcfcfc #000000 #000000;
#X obj 855 494 sel 7;
#X obj 857 552 s Seven;
#X obj 957 520 bng 19 250 50 0 empty empty empty 0 -10 0 12 #fcfcfc #000000 #000000;
#X obj 956 492 sel 8;
#X obj 958 550 s Eight;
#X text 6 -24 Source: https://www.youtube.com/watch?v=eaZniOH_k3I;
#X obj 372 668 r New_Pattern;
#X obj 372 698 bng 19 250 50 0 empty empty empty 0 -10 0 12 #fcfcfc #000000 #000000;
#X obj 372 722 random 100;
#X floatatom 372 746 5 0 0 0 - - - 0;
#X obj 325 803 tgl 19 0 empty empty empty 0 -10 0 12 #fcfcfc #000000 #000000 0 1;
#X obj 287 835 spigot;
#X obj 287 868 bng 19 250 50 0 empty empty empty 0 -10 0 12 #fcfcfc #000000 #000000;
#X obj 286 802 bng 19 250 50 0 empty empty empty 0 -10 0 12 #fcfcfc #000000 #000000;
#X obj 168 667 r New_Pattern;
#X obj 168 697 bng 19 250 50 0 empty empty empty 0 -10 0 12 #fcfcfc #000000 #000000;
#X obj 168 721 random 100;
#X floatatom 168 745 5 0 0 0 - - - 0;
#X obj 169 770 < 100;
#X obj 121 802 tgl 19 0 empty empty empty 0 -10 0 12 #fcfcfc #000000 #000000 0 1;
#X obj 83 834 spigot;
#X obj 83 867 bng 19 250 50 0 empty empty empty 0 -10 0 12 #fcfcfc #000000 #000000;
#X obj 82 801 bng 19 250 50 0 empty empty empty 0 -10 0 12 #fcfcfc #000000 #000000;
#X obj 79 745 receive One;
#X obj 283 746 receive Two;
#X obj 373 771 < 80;
#X text 7 602 generate random number between 0 and 99 -- send bang if less than #;
#X obj 593 667 r New_Pattern;
#X obj 593 697 bng 19 250 50 0 empty empty empty 0 -10 0 12 #fcfcfc #000000 #000000;
#X obj 593 721 random 100;
#X floatatom 593 745 5 0 0 0 - - - 0;
#X obj 555 799 tgl 19 0 empty empty empty 0 -10 0 12 #fcfcfc #000000 #000000 0 1;
#X obj 488 834 spigot;
#X obj 488 867 bng 19 250 50 0 empty empty empty 0 -10 0 12 #fcfcfc #000000 #000000;
#X obj 487 801 bng 19 250 50 0 empty empty empty 0 -10 0 12 #fcfcfc #000000 #000000;
#X obj 484 745 receive Three;
#X obj 819 666 r New_Pattern;
#X obj 819 696 bng 19 250 50 0 empty empty empty 0 -10 0 12 #fcfcfc #000000 #000000;
#X obj 819 720 random 100;
#X floatatom 819 744 5 0 0 0 - - - 0;
#X obj 781 798 tgl 19 0 empty empty empty 0 -10 0 12 #fcfcfc #000000 #000000 0 1;
#X obj 714 833 spigot;
#X obj 714 866 bng 19 250 50 0 empty empty empty 0 -10 0 12 #fcfcfc #000000 #000000;
#X obj 713 800 bng 19 250 50 0 empty empty empty 0 -10 0 12 #fcfcfc #000000 #000000;
#X obj 710 744 receive Four;
#X obj 1043 667 r New_Pattern;
#X obj 1043 697 bng 19 250 50 0 empty empty empty 0 -10 0 12 #fcfcfc #000000 #000000;
#X obj 1043 721 random 100;
#X floatatom 1043 745 5 0 0 0 - - - 0;
#X obj 1005 799 tgl 19 0 empty empty empty 0 -10 0 12 #fcfcfc #000000 #000000 0 1;
#X obj 938 834 spigot;
#X obj 938 867 bng 19 250 50 0 empty empty empty 0 -10 0 12 #fcfcfc #000000 #000000;
#X obj 937 801 bng 19 250 50 0 empty empty empty 0 -10 0 12 #fcfcfc #000000 #000000;
#X obj 934 745 receive Five;
#X obj 594 770 < 5;
#X obj 820 769 < 45;
#X obj 1044 770 < 100;
#X obj 1291 665 r New_Pattern;
#X obj 1291 695 bng 19 250 50 0 empty empty empty 0 -10 0 12 #fcfcfc #000000 #000000;
#X obj 1291 719 random 100;
#X floatatom 1291 743 5 0 0 0 - - - 0;
#X obj 1253 797 tgl 19 0 empty empty empty 0 -10 0 12 #fcfcfc #000000 #000000 0 1;
#X obj 1186 832 spigot;
#X obj 1186 865 bng 19 250 50 0 empty empty empty 0 -10 0 12 #fcfcfc #000000 #000000;
#X obj 1185 799 bng 19 250 50 0 empty empty empty 0 -10 0 12 #fcfcfc #000000 #000000;
#X obj 1182 743 receive Six;
#X obj 1292 768 < 70;
#X obj 1532 666 r New_Pattern;
#X obj 1532 696 bng 19 250 50 0 empty empty empty 0 -10 0 12 #fcfcfc #000000 #000000;
#X obj 1532 720 random 100;
#X floatatom 1532 744 5 0 0 0 - - - 0;
#X obj 1494 798 tgl 19 0 empty empty empty 0 -10 0 12 #fcfcfc #000000 #000000 0 1;
#X obj 1427 833 spigot;
#X obj 1427 866 bng 19 250 50 0 empty empty empty 0 -10 0 12 #fcfcfc #000000 #000000;
#X obj 1426 800 bng 19 250 50 0 empty empty empty 0 -10 0 12 #fcfcfc #000000 #000000;
#X obj 1423 744 receive Seven;
#X obj 1533 769 < 5;
#X obj 1777 669 r New_Pattern;
#X obj 1777 699 bng 19 250 50 0 empty empty empty 0 -10 0 12 #fcfcfc #000000 #000000;
#X obj 1777 723 random 100;
#X floatatom 1777 747 5 0 0 0 - - - 0;
#X obj 1739 801 tgl 19 0 empty empty empty 0 -10 0 12 #fcfcfc #000000 #000000 0 1;
#X obj 1672 836 spigot;
#X obj 1672 869 bng 19 250 50 0 empty empty empty 0 -10 0 12 #fcfcfc #000000 #000000;
#X obj 1671 803 bng 19 250 50 0 empty empty empty 0 -10 0 12 #fcfcfc #000000 #000000;
#X obj 1668 747 receive Eight;
#X obj 1778 772 < 60;
#X obj 705 967 send Kick;
#X obj 246 2056 dac~;
#X obj 247 2025 *~ 0.75;
#X obj 247 1992 readsf~;
#X obj 246 1863 bng 19 250 50 0 empty empty empty 0 -10 0 12 #fcfcfc #000000 #000000;
#X obj 246 1835 receive Kick;
#X obj 371 1054 r New_Pattern;
#X obj 371 1084 bng 19 250 50 0 empty empty empty 0 -10 0 12 #fcfcfc #000000 #000000;
#X obj 371 1108 random 100;
#X floatatom 371 1132 5 0 0 0 - - - 0;
#X obj 324 1189 tgl 19 0 empty empty empty 0 -10 0 12 #fcfcfc #000000 #000000 0 1;
#X obj 286 1221 spigot;
#X obj 286 1254 bng 19 250 50 0 empty empty empty 0 -10 0 12 #fcfcfc #000000 #000000;
#X obj 285 1188 bng 19 250 50 0 empty empty empty 0 -10 0 12 #fcfcfc #000000 #000000;
#X obj 167 1053 r New_Pattern;
#X obj 167 1083 bng 19 250 50 0 empty empty empty 0 -10 0 12 #fcfcfc #000000 #000000;
#X obj 167 1107 random 100;
#X floatatom 167 1131 5 0 0 0 - - - 0;
#X obj 120 1188 tgl 19 0 empty empty empty 0 -10 0 12 #fcfcfc #000000 #000000 0 1;
#X obj 82 1220 spigot;
#X obj 82 1253 bng 19 250 50 0 empty empty empty 0 -10 0 12 #fcfcfc #000000 #000000;
#X obj 81 1187 bng 19 250 50 0 empty empty empty 0 -10 0 12 #fcfcfc #000000 #000000;
#X obj 78 1131 receive One;
#X obj 282 1132 receive Two;
#X obj 592 1053 r New_Pattern;
#X obj 592 1083 bng 19 250 50 0 empty empty empty 0 -10 0 12 #fcfcfc #000000 #000000;
#X obj 592 1107 random 100;
#X floatatom 592 1131 5 0 0 0 - - - 0;
#X obj 554 1185 tgl 19 0 empty empty empty 0 -10 0 12 #fcfcfc #000000 #000000 0 1;
#X obj 487 1220 spigot;
#X obj 487 1253 bng 19 250 50 0 empty empty empty 0 -10 0 12 #fcfcfc #000000 #000000;
#X obj 486 1187 bng 19 250 50 0 empty empty empty 0 -10 0 12 #fcfcfc #000000 #000000;
#X obj 483 1131 receive Three;
#X obj 818 1052 r New_Pattern;
#X obj 818 1082 bng 19 250 50 0 empty empty empty 0 -10 0 12 #fcfcfc #000000 #000000;
#X obj 818 1106 random 100;
#X floatatom 818 1130 5 0 0 0 - - - 0;
#X obj 780 1184 tgl 19 0 empty empty empty 0 -10 0 12 #fcfcfc #000000 #000000 0 1;
#X obj 713 1219 spigot;
#X obj 713 1252 bng 19 250 50 0 empty empty empty 0 -10 0 12 #fcfcfc #000000 #000000;
#X obj 712 1186 bng 19 250 50 0 empty empty empty 0 -10 0 12 #fcfcfc #000000 #000000;
#X obj 709 1130 receive Four;
#X obj 1042 1053 r New_Pattern;
#X obj 1042 1083 bng 19 250 50 0 empty empty empty 0 -10 0 12 #fcfcfc #000000 #000000;
#X obj 1042 1107 random 100;
#X floatatom 1042 1131 5 0 0 0 - - - 0;
#X obj 1004 1185 tgl 19 0 empty empty empty 0 -10 0 12 #fcfcfc #000000 #000000 0 1;
#X obj 937 1220 spigot;
#X obj 937 1253 bng 19 250 50 0 empty empty empty 0 -10 0 12 #fcfcfc #000000 #000000;
#X obj 936 1187 bng 19 250 50 0 empty empty empty 0 -10 0 12 #fcfcfc #000000 #000000;
#X obj 933 1131 receive Five;
#X obj 1290 1051 r New_Pattern;
#X obj 1290 1081 bng 19 250 50 0 empty empty empty 0 -10 0 12 #fcfcfc #000000 #000000;
#X obj 1290 1105 random 100;
#X floatatom 1290 1129 5 0 0 0 - - - 0;
#X obj 1252 1183 tgl 19 0 empty empty empty 0 -10 0 12 #fcfcfc #000000 #000000 0 1;
#X obj 1185 1218 spigot;
#X obj 1185 1251 bng 19 250 50 0 empty empty empty 0 -10 0 12 #fcfcfc #000000 #000000;
#X obj 1184 1185 bng 19 250 50 0 empty empty empty 0 -10 0 12 #fcfcfc #000000 #000000;
#X obj 1181 1129 receive Six;
#X obj 1531 1052 r New_Pattern;
#X obj 1531 1082 bng 19 250 50 0 empty empty empty 0 -10 0 12 #fcfcfc #000000 #000000;
#X obj 1531 1106 random 100;
#X floatatom 1531 1130 5 0 0 0 - - - 0;
#X obj 1493 1184 tgl 19 0 empty empty empty 0 -10 0 12 #fcfcfc #000000 #000000 0 1;
#X obj 1426 1219 spigot;
#X obj 1426 1252 bng 19 250 50 0 empty empty empty 0 -10 0 12 #fcfcfc #000000 #000000;
#X obj 1425 1186 bng 19 250 50 0 empty empty empty 0 -10 0 12 #fcfcfc #000000 #000000;
#X obj 1422 1130 receive Seven;
#X obj 1776 1055 r New_Pattern;
#X obj 1776 1085 bng 19 250 50 0 empty empty empty 0 -10 0 12 #fcfcfc #000000 #000000;
#X obj 1776 1109 random 100;
#X floatatom 1776 1133 5 0 0 0 - - - 0;
#X obj 1738 1187 tgl 19 0 empty empty empty 0 -10 0 12 #fcfcfc #000000 #000000 0 1;
#X obj 1671 1222 spigot;
#X obj 1671 1255 bng 19 250 50 0 empty empty empty 0 -10 0 12 #fcfcfc #000000 #000000;
#X obj 1670 1189 bng 19 250 50 0 empty empty empty 0 -10 0 12 #fcfcfc #000000 #000000;
#X obj 1667 1133 receive Eight;
#X obj 358 1489 r New_Pattern;
#X obj 358 1519 bng 19 250 50 0 empty empty empty 0 -10 0 12 #fcfcfc #000000 #000000;
#X obj 358 1543 random 100;
#X floatatom 358 1567 5 0 0 0 - - - 0;
#X obj 311 1624 tgl 19 0 empty empty empty 0 -10 0 12 #fcfcfc #000000 #000000 0 1;
#X obj 273 1656 spigot;
#X obj 273 1689 bng 19 250 50 0 empty empty empty 0 -10 0 12 #fcfcfc #000000 #000000;
#X obj 272 1623 bng 19 250 50 0 empty empty empty 0 -10 0 12 #fcfcfc #000000 #000000;
#X obj 154 1488 r New_Pattern;
#X obj 154 1518 bng 19 250 50 0 empty empty empty 0 -10 0 12 #fcfcfc #000000 #000000;
#X obj 154 1542 random 100;
#X floatatom 154 1566 5 0 0 0 - - - 0;
#X obj 155 1591 < 100;
#X obj 107 1623 tgl 19 0 empty empty empty 0 -10 0 12 #fcfcfc #000000 #000000 0 1;
#X obj 69 1655 spigot;
#X obj 69 1688 bng 19 250 50 0 empty empty empty 0 -10 0 12 #fcfcfc #000000 #000000;
#X obj 68 1622 bng 19 250 50 0 empty empty empty 0 -10 0 12 #fcfcfc #000000 #000000;
#X obj 65 1566 receive One;
#X obj 269 1567 receive Two;
#X obj 359 1592 < 80;
#X obj 579 1488 r New_Pattern;
#X obj 579 1518 bng 19 250 50 0 empty empty empty 0 -10 0 12 #fcfcfc #000000 #000000;
#X obj 579 1542 random 100;
#X floatatom 579 1566 5 0 0 0 - - - 0;
#X obj 541 1620 tgl 19 0 empty empty empty 0 -10 0 12 #fcfcfc #000000 #000000 0 1;
#X obj 474 1655 spigot;
#X obj 474 1688 bng 19 250 50 0 empty empty empty 0 -10 0 12 #fcfcfc #000000 #000000;
#X obj 473 1622 bng 19 250 50 0 empty empty empty 0 -10 0 12 #fcfcfc #000000 #000000;
#X obj 470 1566 receive Three;
#X obj 805 1487 r New_Pattern;
#X obj 805 1517 bng 19 250 50 0 empty empty empty 0 -10 0 12 #fcfcfc #000000 #000000;
#X obj 805 1541 random 100;
#X floatatom 805 1565 5 0 0 0 - - - 0;
#X obj 767 1619 tgl 19 0 empty empty empty 0 -10 0 12 #fcfcfc #000000 #000000 0 1;
#X obj 700 1654 spigot;
#X obj 700 1687 bng 19 250 50 0 empty empty empty 0 -10 0 12 #fcfcfc #000000 #000000;
#X obj 699 1621 bng 19 250 50 0 empty empty empty 0 -10 0 12 #fcfcfc #000000 #000000;
#X obj 696 1565 receive Four;
#X obj 1029 1488 r New_Pattern;
#X obj 1029 1518 bng 19 250 50 0 empty empty empty 0 -10 0 12 #fcfcfc #000000 #000000;
#X obj 1029 1542 random 100;
#X floatatom 1029 1566 5 0 0 0 - - - 0;
#X obj 991 1620 tgl 19 0 empty empty empty 0 -10 0 12 #fcfcfc #000000 #000000 0 1;
#X obj 924 1655 spigot;
#X obj 924 1688 bng 19 250 50 0 empty empty empty 0 -10 0 12 #fcfcfc #000000 #000000;
#X obj 923 1622 bng 19 250 50 0 empty empty empty 0 -10 0 12 #fcfcfc #000000 #000000;
#X obj 920 1566 receive Five;
#X obj 806 1590 < 45;
#X obj 1030 1591 < 100;
#X obj 1277 1486 r New_Pattern;
#X obj 1277 1516 bng 19 250 50 0 empty empty empty 0 -10 0 12 #fcfcfc #000000 #000000;
#X obj 1277 1540 random 100;
#X floatatom 1277 1564 5 0 0 0 - - - 0;
#X obj 1239 1618 tgl 19 0 empty empty empty 0 -10 0 12 #fcfcfc #000000 #000000 0 1;
#X obj 1172 1653 spigot;
#X obj 1172 1686 bng 19 250 50 0 empty empty empty 0 -10 0 12 #fcfcfc #000000 #000000;
#X obj 1171 1620 bng 19 250 50 0 empty empty empty 0 -10 0 12 #fcfcfc #000000 #000000;
#X obj 1168 1564 receive Six;
#X obj 1278 1589 < 70;
#X obj 1518 1487 r New_Pattern;
#X obj 1518 1517 bng 19 250 50 0 empty empty empty 0 -10 0 12 #fcfcfc #000000 #000000;
#X obj 1518 1541 random 100;
#X floatatom 1518 1565 5 0 0 0 - - - 0;
#X obj 1480 1619 tgl 19 0 empty empty empty 0 -10 0 12 #fcfcfc #000000 #000000 0 1;
#X obj 1413 1654 spigot;
#X obj 1413 1687 bng 19 250 50 0 empty empty empty 0 -10 0 12 #fcfcfc #000000 #000000;
#X obj 1412 1621 bng 19 250 50 0 empty empty empty 0 -10 0 12 #fcfcfc #000000 #000000;
#X obj 1409 1565 receive Seven;
#X obj 1763 1490 r New_Pattern;
#X obj 1763 1520 bng 19 250 50 0 empty empty empty 0 -10 0 12 #fcfcfc #000000 #000000;
#X obj 1763 1544 random 100;
#X floatatom 1763 1568 5 0 0 0 - - - 0;
#X obj 1725 1622 tgl 19 0 empty empty empty 0 -10 0 12 #fcfcfc #000000 #000000 0 1;
#X obj 1658 1657 spigot;
#X obj 1658 1690 bng 19 250 50 0 empty empty empty 0 -10 0 12 #fcfcfc #000000 #000000;
#X obj 1657 1624 bng 19 250 50 0 empty empty empty 0 -10 0 12 #fcfcfc #000000 #000000;
#X obj 1654 1568 receive Eight;
#X obj 1764 1593 < 60;
#X obj 704 1353 send Snare;
#X obj 168 1156 < 1;
#X obj 372 1157 < 1;
#X obj 593 1156 < 100;
#X obj 819 1155 < 65;
#X obj 1043 1156 < 1;
#X obj 1291 1154 < 1;
#X obj 1532 1155 < 100;
#X obj 1777 1158 < 50;
#X obj 580 1591 < 85;
#X obj 1519 1590 < 75;
#X obj 658 2058 dac~;
#X obj 659 2027 *~ 0.75;
#X obj 659 1994 readsf~;
#X obj 657 1869 bng 19 250 50 0 empty empty empty 0 -10 0 12 #fcfcfc #000000 #000000;
#X obj 657 1841 receive Snare;
#X obj 1070 2059 dac~;
#X obj 1071 2028 *~ 0.75;
#X obj 1071 1995 readsf~;
#X obj 1069 1873 bng 19 250 50 0 empty empty empty 0 -10 0 12 #fcfcfc #000000 #000000;
#X obj 691 1788 send Sticks;
#X obj 1069 1845 receive Sticks;
#X text 613 46 Suggestions to Build off of this: - use synths instead of samples - generative melody - toggle btwn generative and manual - randomize synth parameters (every 2 measures or each note) - be able to choose how often the pattern changes (2 measures \, 4 measures \, etc), f 96;
#X obj 446 -10 declare -path Abstractions;
#X obj 246 1927 message2symbol;
#X msg 246 1964 open \$1 \, 1;
#X msg 246 1893 ../../Drums/Kick/Acoustic Kick 01.wav;
#X msg 658 1966 open \$1 \, 1;
#X msg 657 1901 ../../Drums/Snare/Acoustic Snare 01.wav;
#X obj 657 1932 message2symbol;
#X msg 1070 1967 open \$1 \, 1, f 13;
#X obj 1069 1927 message2symbol;
#X msg 1071 1901 ../../Drums/Sticks/Acoustic Sticks 04.wav;
#X connect 0 0 4 0;
#X connect 1 0 2 0;
#X connect 2 0 6 0;
#X connect 3 0 4 0;
#X connect 4 0 5 0;
#X connect 5 0 9 0;
#X connect 6 0 7 1;
#X connect 7 0 10 0;
#X connect 8 0 3 0;
#X connect 8 0 7 0;
#X connect 9 0 11 0;
#X connect 9 0 12 0;
#X connect 10 0 9 0;
#X connect 11 0 9 1;
#X connect 12 0 13 0;
#X connect 12 0 16 0;
#X connect 13 0 14 0;
#X connect 14 0 15 0;
#X connect 15 0 24 0;
#X connect 15 0 28 0;
#X connect 15 0 31 0;
#X connect 15 0 34 0;
#X connect 15 0 37 0;
#X connect 15 0 40 0;
#X connect 15 0 43 0;
#X connect 15 0 46 0;
#X connect 16 0 17 0;
#X connect 17 0 18 0;
#X connect 18 0 19 0;
#X connect 19 0 20 0;
#X connect 20 0 21 0;
#X connect 24 0 25 0;
#X connect 25 0 26 0;
#X connect 27 0 29 0;
#X connect 28 0 27 0;
#X connect 30 0 32 0;
#X connect 31 0 30 0;
#X connect 33 0 35 0;
#X connect 34 0 33 0;
#X connect 36 0 38 0;
#X connect 37 0 36 0;
#X connect 39 0 41 0;
#X connect 40 0 39 0;
#X connect 42 0 44 0;
#X connect 43 0 42 0;
#X connect 45 0 47 0;
#X connect 46 0 45 0;
#X connect 49 0 50 0;
#X connect 50 0 51 0;
#X connect 51 0 52 0;
#X connect 52 0 68 0;
#X connect 53 0 54 1;
#X connect 54 0 55 0;
#X connect 55 0 130 0;
#X connect 56 0 54 0;
#X connect 57 0 58 0;
#X connect 58 0 59 0;
#X connect 59 0 60 0;
#X connect 60 0 61 0;
#X connect 61 0 62 0;
#X connect 62 0 63 1;
#X connect 63 0 64 0;
#X connect 64 0 130 0;
#X connect 65 0 63 0;
#X connect 66 0 65 0;
#X connect 67 0 56 0;
#X connect 68 0 53 0;
#X connect 70 0 71 0;
#X connect 71 0 72 0;
#X connect 72 0 73 0;
#X connect 73 0 97 0;
#X connect 74 0 75 1;
#X connect 75 0 76 0;
#X connect 76 0 130 0;
#X connect 77 0 75 0;
#X connect 78 0 77 0;
#X connect 79 0 80 0;
#X connect 80 0 81 0;
#X connect 81 0 82 0;
#X connect 82 0 98 0;
#X connect 83 0 84 1;
#X connect 84 0 85 0;
#X connect 85 0 130 0;
#X connect 86 0 84 0;
#X connect 87 0 86 0;
#X connect 88 0 89 0;
#X connect 89 0 90 0;
#X connect 90 0 91 0;
#X connect 91 0 99 0;
#X connect 92 0 93 1;
#X connect 93 0 94 0;
#X connect 94 0 130 0;
#X connect 95 0 93 0;
#X connect 96 0 95 0;
#X connect 97 0 74 0;
#X connect 98 0 83 0;
#X connect 99 0 92 0;
#X connect 100 0 101 0;
#X connect 101 0 102 0;
#X connect 102 0 103 0;
#X connect 103 0 109 0;
#X connect 104 0 105 1;
#X connect 105 0 106 0;
#X connect 106 0 130 0;
#X connect 107 0 105 0;
#X connect 108 0 107 0;
#X connect 109 0 104 0;
#X connect 110 0 111 0;
#X connect 111 0 112 0;
#X connect 112 0 113 0;
#X connect 113 0 119 0;
#X connect 114 0 115 1;
#X connect 115 0 116 0;
#X connect 116 0 130 0;
#X connect 117 0 115 0;
#X connect 118 0 117 0;
#X connect 119 0 114 0;
#X connect 120 0 121 0;
#X connect 121 0 122 0;
#X connect 122 0 123 0;
#X connect 123 0 129 0;
#X connect 124 0 125 1;
#X connect 125 0 126 0;
#X connect 126 0 130 0;
#X connect 127 0 125 0;
#X connect 128 0 127 0;
#X connect 129 0 124 0;
#X connect 132 0 131 0;
#X connect 132 0 131 1;
#X connect 133 0 132 0;
#X connect 134 0 312 0;
#X connect 135 0 134 0;
#X connect 136 0 137 0;
#X connect 137 0 138 0;
#X connect 138 0 139 0;
#X connect 139 0 288 0;
#X connect 140 0 141 1;
#X connect 141 0 142 0;
#X connect 142 0 286 0;
#X connect 143 0 141 0;
#X connect 144 0 145 0;
#X connect 145 0 146 0;
#X connect 146 0 147 0;
#X connect 147 0 287 0;
#X connect 148 0 149 1;
#X connect 149 0 150 0;
#X connect 150 0 286 0;
#X connect 151 0 149 0;
#X connect 152 0 151 0;
#X connect 153 0 143 0;
#X connect 154 0 155 0;
#X connect 155 0 156 0;
#X connect 156 0 157 0;
#X connect 157 0 289 0;
#X connect 158 0 159 1;
#X connect 159 0 160 0;
#X connect 160 0 286 0;
#X connect 161 0 159 0;
#X connect 162 0 161 0;
#X connect 163 0 164 0;
#X connect 164 0 165 0;
#X connect 165 0 166 0;
#X connect 166 0 290 0;
#X connect 167 0 168 1;
#X connect 168 0 169 0;
#X connect 169 0 286 0;
#X connect 170 0 168 0;
#X connect 171 0 170 0;
#X connect 172 0 173 0;
#X connect 173 0 174 0;
#X connect 174 0 175 0;
#X connect 175 0 291 0;
#X connect 176 0 177 1;
#X connect 177 0 178 0;
#X connect 178 0 286 0;
#X connect 179 0 177 0;
#X connect 180 0 179 0;
#X connect 181 0 182 0;
#X connect 182 0 183 0;
#X connect 183 0 184 0;
#X connect 184 0 292 0;
#X connect 185 0 186 1;
#X connect 186 0 187 0;
#X connect 187 0 286 0;
#X connect 188 0 186 0;
#X connect 189 0 188 0;
#X connect 190 0 191 0;
#X connect 191 0 192 0;
#X connect 192 0 193 0;
#X connect 193 0 293 0;
#X connect 194 0 195 1;
#X connect 195 0 196 0;
#X connect 196 0 286 0;
#X connect 197 0 195 0;
#X connect 198 0 197 0;
#X connect 199 0 200 0;
#X connect 200 0 201 0;
#X connect 201 0 202 0;
#X connect 202 0 294 0;
#X connect 203 0 204 1;
#X connect 204 0 205 0;
#X connect 205 0 286 0;
#X connect 206 0 204 0;
#X connect 207 0 206 0;
#X connect 208 0 209 0;
#X connect 209 0 210 0;
#X connect 210 0 211 0;
#X connect 211 0 227 0;
#X connect 212 0 213 1;
#X connect 213 0 214 0;
#X connect 214 0 306 0;
#X connect 215 0 213 0;
#X connect 216 0 217 0;
#X connect 217 0 218 0;
#X connect 218 0 219 0;
#X connect 219 0 220 0;
#X connect 220 0 221 0;
#X connect 221 0 222 1;
#X connect 222 0 223 0;
#X connect 223 0 306 0;
#X connect 224 0 222 0;
#X connect 225 0 224 0;
#X connect 226 0 215 0;
#X connect 227 0 212 0;
#X connect 228 0 229 0;
#X connect 229 0 230 0;
#X connect 230 0 231 0;
#X connect 231 0 295 0;
#X connect 232 0 233 1;
#X connect 233 0 234 0;
#X connect 234 0 306 0;
#X connect 235 0 233 0;
#X connect 236 0 235 0;
#X connect 237 0 238 0;
#X connect 238 0 239 0;
#X connect 239 0 240 0;
#X connect 240 0 255 0;
#X connect 241 0 242 1;
#X connect 242 0 243 0;
#X connect 243 0 306 0;
#X connect 244 0 242 0;
#X connect 245 0 244 0;
#X connect 246 0 247 0;
#X connect 247 0 248 0;
#X connect 248 0 249 0;
#X connect 249 0 256 0;
#X connect 250 0 251 1;
#X connect 251 0 252 0;
#X connect 252 0 306 0;
#X connect 253 0 251 0;
#X connect 254 0 253 0;
#X connect 255 0 241 0;
#X connect 256 0 250 0;
#X connect 257 0 258 0;
#X connect 258 0 259 0;
#X connect 259 0 260 0;
#X connect 260 0 266 0;
#X connect 261 0 262 1;
#X connect 262 0 263 0;
#X connect 263 0 306 0;
#X connect 264 0 262 0;
#X connect 265 0 264 0;
#X connect 266 0 261 0;
#X connect 267 0 268 0;
#X connect 268 0 269 0;
#X connect 269 0 270 0;
#X connect 270 0 296 0;
#X connect 271 0 272 1;
#X connect 272 0 273 0;
#X connect 273 0 306 0;
#X connect 274 0 272 0;
#X connect 275 0 274 0;
#X connect 276 0 277 0;
#X connect 277 0 278 0;
#X connect 278 0 279 0;
#X connect 279 0 285 0;
#X connect 280 0 281 1;
#X connect 281 0 282 0;
#X connect 282 0 306 0;
#X connect 283 0 281 0;
#X connect 284 0 283 0;
#X connect 285 0 280 0;
#X connect 287 0 148 0;
#X connect 288 0 140 0;
#X connect 289 0 158 0;
#X connect 290 0 167 0;
#X connect 291 0 176 0;
#X connect 292 0 185 0;
#X connect 293 0 194 0;
#X connect 294 0 203 0;
#X connect 295 0 232 0;
#X connect 296 0 271 0;
#X connect 298 0 297 0;
#X connect 298 0 297 1;
#X connect 299 0 298 0;
#X connect 300 0 314 0;
#X connect 301 0 300 0;
#X connect 303 0 302 0;
#X connect 303 0 302 1;
#X connect 304 0 303 0;
#X connect 305 0 318 0;
#X connect 307 0 305 0;
#X connect 310 0 311 0;
#X connect 311 0 133 0;
#X connect 312 0 310 0;
#X connect 313 0 299 0;
#X connect 314 0 315 0;
#X connect 315 0 313 0;
#X connect 316 0 304 0;
#X connect 317 0 316 0;
#X connect 318 0 317 0;
