#N canvas 243 25 1198 847 12;
#X obj 592 32 tgl 19 0 empty empty empty 0 -10 0 12 #fcfcfc #000000 #000000 0 1;
#X obj 592 56 metro 400;
#X obj 592 80 bng 19 250 50 0 empty empty empty 0 -10 0 12 #fcfcfc #000000 #000000;
#X obj 476 146 random 60;
#X obj 237 195 % 12;
#X obj 237 219 select 1 4 6 8 9 10 11;
#X obj 240 257 + 12;
#X obj 314 260 - 12;
#X floatatom 403 265 5 0 0 0 - - - 0;
#X text 452 266 SELECTED NOTES;
#X text 78 279 RANDOM Oct UP/DOWN;
#X text 107 220 Unselected Notes;
#X text 159 158 Quantizer Minor Penta;
#X text 483 59 Clock;
#X obj 242 323 + 64;
#X obj 242 347 +;
#X obj 331 385 mtof~;
#X obj 244 431 osc~;
#X obj 398 429 phasor~;
#X obj 377 508 *~;
#X obj 503 470 lop~;
#X obj 377 532 *~ 0.3;
#X obj 377 574 dac~;
#X text 264 575 Audio OUT;
#X text 277 530 MIXER;
#X text 137 433 OSC 1;
#X text 465 429 OSC 2;
#X text 342 365 MIDI to Freq;
#X obj 614 149 random 3500;
#X floatatom 614 173 5 0 0 0 - - - 0;
#X msg 755 110 1 100 \, 0 400 300;
#X obj 755 134 vline~;
#X text 756 80 EG OSC1;
#X text 763 177 EG OSC2;
#X msg 764 211 1 100 \, 0 10 400;
#X obj 764 235 vline~;
#X obj 662 380 *~;
#X text 702 379 VCA;
#X obj 663 430 delwrite~ D1 1500;
#X obj 666 460 delread~ D1 400;
#X text 803 447 DELAY;
#X obj 654 519 *~ 0.55;
#X text 717 522 Delay Feedback;
#X obj 526 531 *~ 0.4;
#X obj 526 588 dac~;
#X obj 481 18 loadbang;
#X connect 0 0 1 0;
#X connect 1 0 2 0;
#X connect 2 0 3 0;
#X connect 2 0 28 0;
#X connect 2 0 30 0;
#X connect 2 0 34 0;
#X connect 3 0 4 0;
#X connect 4 0 5 0;
#X connect 5 0 6 0;
#X connect 5 1 6 0;
#X connect 5 2 6 0;
#X connect 5 3 7 0;
#X connect 5 4 7 0;
#X connect 5 5 7 0;
#X connect 5 6 7 0;
#X connect 5 7 8 0;
#X connect 6 0 14 0;
#X connect 7 0 14 0;
#X connect 8 0 14 0;
#X connect 14 0 15 0;
#X connect 15 0 16 0;
#X connect 16 0 17 0;
#X connect 16 0 18 0;
#X connect 17 0 19 0;
#X connect 18 0 20 0;
#X connect 19 0 21 0;
#X connect 20 0 36 0;
#X connect 21 0 22 0;
#X connect 21 0 22 1;
#X connect 28 0 29 0;
#X connect 29 0 20 1;
#X connect 30 0 31 0;
#X connect 31 0 19 1;
#X connect 34 0 35 0;
#X connect 35 0 36 1;
#X connect 36 0 38 0;
#X connect 39 0 41 0;
#X connect 39 0 43 0;
#X connect 41 0 38 0;
#X connect 43 0 44 0;
#X connect 43 0 44 1;
#X connect 45 0 0 0;
