#N canvas 310 25 1130 847 12;
#X obj 55 52 tgl 19 0 empty empty empty 0 -10 0 12 #fcfcfc #000000 #000000 0 1;
#X obj 55 76 metro 1000;
#X obj 55 100 bng 19 250 50 0 empty empty empty 0 -10 0 12 #fcfcfc #000000 #000000;
#X obj 57 209 random 24;
#X obj 57 233 + 84;
#X floatatom 57 257 5 0 0 0 - - - 0;
#X obj 57 280 mtof;
#X floatatom 57 304 5 0 0 0 - - - 0;
#X msg 57 327 \$1 30;
#X obj 57 351 line 0 3;
#X obj 57 445 osc~;
#X obj 58 599 *~ 0.1;
#X obj 262 744 throw~ out;
#X obj 587 52 catch~ out;
#X obj 556 284 dac~;
#X obj 144 142 + 50;
#X floatatom 144 166 5 0 0 0 - - - 0;
#X obj 156 447 osc~;
#X obj 157 601 *~ 0.1;
#X obj 156 413 / 2;
#X obj 274 446 osc~;
#X obj 275 600 *~ 0.1;
#X obj 274 412 / 3;
#X obj 389 446 osc~;
#X obj 390 600 *~ 0.1;
#X obj 389 412 / 4;
#X obj 501 445 osc~;
#X obj 502 599 *~ 0.1;
#X obj 501 411 / 5;
#X obj 617 447 osc~;
#X obj 618 601 *~ 0.1;
#X obj 735 446 osc~;
#X obj 736 600 *~ 0.1;
#X obj 850 446 osc~;
#X obj 851 600 *~ 0.1;
#X obj 962 445 osc~;
#X obj 963 599 *~ 0.1;
#X obj 617 413 / 6;
#X obj 735 412 / 7;
#X obj 850 412 / 8;
#X obj 962 411 / 9;
#X text 1012 409 divide Freq;
#X text 1012 444 sine osc;
#X text 202 144 randomize metro length;
#X obj 78 156 s trig;
#X obj 196 473 r trig;
#X obj 196 497 random 10;
#X obj 196 521 * 0.01;
#X msg 196 545 \$1 30;
#X obj 196 569 line 0 3;
#X obj 314 473 r trig;
#X obj 314 497 random 10;
#X obj 314 521 * 0.01;
#X msg 314 545 \$1 30;
#X obj 314 569 line 0 3;
#X obj 428 473 r trig;
#X obj 428 497 random 10;
#X obj 428 521 * 0.01;
#X msg 428 545 \$1 30;
#X obj 428 569 line 0 3;
#X obj 541 473 r trig;
#X obj 541 497 random 10;
#X obj 541 521 * 0.01;
#X msg 541 545 \$1 30;
#X obj 541 569 line 0 3;
#X obj 656 473 r trig;
#X obj 656 497 random 10;
#X obj 656 521 * 0.01;
#X msg 656 545 \$1 30;
#X obj 656 569 line 0 3;
#X obj 774 473 r trig;
#X obj 774 497 random 10;
#X obj 774 521 * 0.01;
#X msg 774 545 \$1 30;
#X obj 774 569 line 0 3;
#X obj 889 473 r trig;
#X obj 889 497 random 10;
#X obj 889 521 * 0.01;
#X msg 889 545 \$1 30;
#X obj 889 569 line 0 3;
#X obj 1002 473 r trig;
#X obj 1002 497 random 10;
#X obj 1002 521 * 0.01;
#X msg 1002 545 \$1 30;
#X obj 1002 569 line 0 3;
#X text 149 9 Source: https://www.youtube.com/watch?v=fmf__JSh3Yc;
#X text 945 637 randomize subharmonic amp;
#X obj 663 90 lop~ 2000;
#X obj 663 114 lop~ 2000;
#X obj 663 138 hip~ 600;
#X obj 663 162 *~ 0.8;
#X obj 663 186 delwrite~ delBuff 300;
#X obj 611 225 delread~ delBuff 300;
#X obj 611 249 *~ 0.4;
#X text 106 284 midi to freq;
#X text 103 255 random note 84 to 107;
#X text 119 332 30ms gliss;
#X text 765 223 feedback delay;
#X obj 144 118 random 3000;
#X obj 54 22 loadbang;
#X connect 0 0 1 0;
#X connect 1 0 2 0;
#X connect 2 0 3 0;
#X connect 2 0 44 0;
#X connect 2 0 98 0;
#X connect 3 0 4 0;
#X connect 4 0 5 0;
#X connect 5 0 6 0;
#X connect 6 0 7 0;
#X connect 7 0 8 0;
#X connect 8 0 9 0;
#X connect 9 0 10 0;
#X connect 9 0 19 0;
#X connect 9 0 22 0;
#X connect 9 0 25 0;
#X connect 9 0 28 0;
#X connect 9 0 37 0;
#X connect 9 0 38 0;
#X connect 9 0 39 0;
#X connect 9 0 40 0;
#X connect 10 0 11 0;
#X connect 11 0 12 0;
#X connect 13 0 14 0;
#X connect 13 0 14 1;
#X connect 13 0 87 0;
#X connect 15 0 16 0;
#X connect 16 0 1 1;
#X connect 17 0 18 0;
#X connect 18 0 12 0;
#X connect 19 0 17 0;
#X connect 20 0 21 0;
#X connect 21 0 12 0;
#X connect 22 0 20 0;
#X connect 23 0 24 0;
#X connect 24 0 12 0;
#X connect 25 0 23 0;
#X connect 26 0 27 0;
#X connect 27 0 12 0;
#X connect 28 0 26 0;
#X connect 29 0 30 0;
#X connect 30 0 12 0;
#X connect 31 0 32 0;
#X connect 32 0 12 0;
#X connect 33 0 34 0;
#X connect 34 0 12 0;
#X connect 35 0 36 0;
#X connect 36 0 12 0;
#X connect 37 0 29 0;
#X connect 38 0 31 0;
#X connect 39 0 33 0;
#X connect 40 0 35 0;
#X connect 45 0 46 0;
#X connect 46 0 47 0;
#X connect 47 0 48 0;
#X connect 48 0 49 0;
#X connect 49 0 18 1;
#X connect 50 0 51 0;
#X connect 51 0 52 0;
#X connect 52 0 53 0;
#X connect 53 0 54 0;
#X connect 54 0 21 1;
#X connect 55 0 56 0;
#X connect 56 0 57 0;
#X connect 57 0 58 0;
#X connect 58 0 59 0;
#X connect 59 0 24 1;
#X connect 60 0 61 0;
#X connect 61 0 62 0;
#X connect 62 0 63 0;
#X connect 63 0 64 0;
#X connect 64 0 27 1;
#X connect 65 0 66 0;
#X connect 66 0 67 0;
#X connect 67 0 68 0;
#X connect 68 0 69 0;
#X connect 69 0 30 1;
#X connect 70 0 71 0;
#X connect 71 0 72 0;
#X connect 72 0 73 0;
#X connect 73 0 74 0;
#X connect 74 0 32 1;
#X connect 75 0 76 0;
#X connect 76 0 77 0;
#X connect 77 0 78 0;
#X connect 78 0 79 0;
#X connect 79 0 34 1;
#X connect 80 0 81 0;
#X connect 81 0 82 0;
#X connect 82 0 83 0;
#X connect 83 0 84 0;
#X connect 84 0 36 1;
#X connect 87 0 88 0;
#X connect 88 0 89 0;
#X connect 89 0 90 0;
#X connect 90 0 91 0;
#X connect 92 0 93 0;
#X connect 92 0 87 0;
#X connect 93 0 14 0;
#X connect 93 0 14 1;
#X connect 98 0 15 0;
#X connect 99 0 0 0;
