#N canvas 503 89 724 547 12;
#X declare -path Abstractions;
#X obj 363 125 metro 500;
#X msg 364 85 1;
#X obj 181 362 hsl 162 19 0 1 0 0 empty empty empty -2 -10 0 12 #fcfcfc #000000 #000000 0 1;
#X floatatom 180 401 5 0 0 0 - - - 0;
#X floatatom 46 81 5 0 0 0 - - - 0;
#X obj 80 390 dac~;
#X obj 82 349 *~;
#X obj 514 63 declare -path Abstractions;
#X obj 76 248 *~;
#X obj 50 174 tri~;
#X obj 107 169 osc~ 1;
#X obj 489 165 del 2000;
#X msg 489 204 0;
#X msg 451 206 1;
#X msg 507 276 1;
#X obj 472 331 adsr, f 27;
#X floatatom 539 307 5 0 0 0 - - - 0;
#X floatatom 579 306 5 0 0 0 - - - 0;
#X floatatom 617 305 5 0 0 0 - - - 0;
#X floatatom 657 303 5 0 0 0 - - - 0;
#X obj 489 129 / 2;
#X floatatom 426 85 5 0 0 0 - - - 0;
#X obj 303 80 tgl 19 0 empty empty empty 0 -10 0 12 #fcfcfc #000000 #000000 0 1;
#X obj 172 172 squ~;
#X obj 80 313 rev2~, f 15;
#X floatatom 131 285 5 0 0 0 - - - 0;
#X floatatom 176 281 5 0 0 0 - - - 0;
#X obj 162 219 loadbang;
#X msg 153 247 100;
#X obj 48 113 mtof;
#X msg 194 252 40;
#X connect 0 0 13 0;
#X connect 0 0 14 0;
#X connect 0 0 11 0;
#X connect 1 0 0 0;
#X connect 2 0 3 0;
#X connect 2 0 6 1;
#X connect 4 0 29 0;
#X connect 6 0 5 0;
#X connect 6 0 5 1;
#X connect 8 0 24 0;
#X connect 9 0 8 0;
#X connect 10 0 8 0;
#X connect 11 0 12 0;
#X connect 12 0 15 0;
#X connect 13 0 15 0;
#X connect 14 0 15 1;
#X connect 15 0 8 1;
#X connect 16 0 15 2;
#X connect 17 0 15 3;
#X connect 18 0 15 4;
#X connect 19 0 15 5;
#X connect 20 0 11 1;
#X connect 21 0 0 1;
#X connect 21 0 20 0;
#X connect 22 0 0 0;
#X connect 23 0 8 0;
#X connect 24 0 6 0;
#X connect 25 0 24 1;
#X connect 26 0 24 2;
#X connect 27 0 28 0;
#X connect 27 0 30 0;
#X connect 28 0 25 0;
#X connect 29 0 10 0;
#X connect 29 0 9 0;
#X connect 29 0 23 0;
#X connect 30 0 26 0;
